<svg width="150" height="100" viewBox="0 0 150 100" fill="none" xmlns="http://www.w3.org/2000/svg">
<path d="M34.3109 38.6626L28 57.1534H31.7076L33.4905 51.7577H38.618L40.4482 57.1534H44.2347L37.9081 38.6626H34.3109ZM37.7187 48.6811H34.4055L35.7939 44.6106C35.8886 44.3266 35.9833 44.0584 36.0621 43.7902C36.1568 44.0742 36.2357 44.3582 36.3461 44.6579L37.7187 48.6811Z" fill="white"/>
<path d="M50.4669 48.7287C48.7629 48.0503 48.5736 47.7348 48.5736 47.2457C48.5736 46.6146 49.0942 46.2359 49.9462 46.2359C50.9402 46.2359 51.729 46.6304 52.1077 46.867L52.8334 47.3246L53.7958 44.39L53.3541 44.106C52.5179 43.5538 51.2557 43.2383 49.9778 43.2383C47.1221 43.2383 45.0553 45.0369 45.0553 47.5297C45.0553 49.8174 47.0748 51.0322 48.7787 51.6475C50.4669 52.2786 50.6089 52.7204 50.6089 53.2568C50.6089 54.2665 49.5518 54.4085 48.9207 54.4085C47.9425 54.4085 46.8854 53.9983 46.2859 53.6354L45.5602 53.2095L44.6135 56.1913L45.0711 56.4596C46.1124 57.0749 47.5007 57.422 48.8734 57.422C52.013 57.422 54.1272 55.6549 54.1272 53.0359C54.1272 50.4011 52.0288 49.3125 50.4669 48.7287Z" fill="white"/>
<path d="M59.6965 40.3037L56.1625 41.3766V43.4907H54.2534V46.5357H56.1625V52.5784C56.1625 54.2665 56.4938 55.4656 57.2037 56.2702C57.8979 57.0117 58.9235 57.4377 60.1225 57.4377C61.1954 57.4377 61.9685 57.2168 62.3313 57.0906L62.8046 56.9329L62.6153 53.8721L61.7949 54.1087C61.5582 54.1718 61.2743 54.235 60.6905 54.235C60.2645 54.235 59.6808 54.235 59.6808 52.5152V46.5357H62.8835V43.4907H59.6965V40.3037Z" fill="white"/>
<path d="M71.5135 43.3642L70.8666 43.2695C70.6773 43.2379 70.488 43.2222 70.2355 43.2222C69.1153 43.2222 68.0898 43.6797 67.301 44.4843L67.2536 43.4904H63.9404L63.9878 44.2004C64.0509 45.2574 64.0982 46.4565 64.0982 48.0026V57.1534H67.6796V49.9275C67.6796 49.5961 67.7112 49.249 67.7427 49.0124C68.0109 47.5924 68.8945 46.7089 70.0935 46.7089C70.3775 46.7089 70.5511 46.7089 70.7088 46.7405L71.5293 46.914L71.5135 43.3642Z" fill="white"/>
<path d="M78.0295 43.2383C74.0379 43.2383 71.2454 46.1886 71.2454 50.4327C71.2454 54.5663 73.9433 57.4377 77.8244 57.4377C81.1061 57.4377 84.6244 55.1816 84.6244 50.2276C84.6402 46.1097 81.9265 43.2383 78.0295 43.2383ZM81.0114 50.3065C81.0114 52.6888 79.7177 54.4243 77.9507 54.4243C76.1836 54.4243 74.9057 52.7046 74.9057 50.3696C74.9057 48.855 75.5525 46.2833 77.998 46.2833C80.3803 46.2517 81.0114 48.9023 81.0114 50.3065Z" fill="white"/>
<path d="M96.3784 40.1296C95.2109 39.0726 93.4281 38.5361 91.1246 38.5361C89.5785 38.5361 88.1112 38.6466 86.7543 38.8675L86.2021 38.9621V57.1532H89.752V50.4006C90.1149 50.4321 90.4935 50.4479 90.8722 50.4479C93.2703 50.4479 95.3056 49.7064 96.5993 48.3653C97.609 47.324 98.1139 45.9356 98.1139 44.2317C98.0981 42.5751 97.4828 41.1236 96.3784 40.1296ZM94.5483 44.3421C94.5483 46.9296 92.2764 47.3082 90.9195 47.3082C90.462 47.3082 90.0833 47.2925 89.7678 47.2451V41.6916C90.1149 41.6442 90.5882 41.6285 91.1877 41.6285C92.7023 41.6285 94.5483 42.1018 94.5483 44.3421Z" fill="white"/>
<path d="M108.984 53.525V48.9181C108.984 45.242 107.075 43.2383 103.636 43.2383C102.042 43.2383 100.37 43.68 99.2183 44.4058L98.7608 44.6898L99.7232 47.5297L100.449 47.0406C101.19 46.5357 102.263 46.2359 103.305 46.2359C104.03 46.2202 104.551 46.3937 104.898 46.725C105.182 47.009 105.356 47.435 105.419 47.9714C102.626 48.0503 100.591 48.713 99.3288 49.9594C98.461 50.8271 98.0193 51.9157 98.0193 53.2252C98.0193 55.3236 99.5339 57.4377 102.468 57.4377C103.715 57.4377 104.882 57.0433 105.797 56.3491L105.892 57.1695H109.284L109.158 56.3964C109.048 55.6391 108.984 54.6767 108.984 53.525ZM103.021 54.4401C102.484 54.4401 101.601 54.2507 101.601 52.9728C101.601 52.4837 101.743 52.0893 102.058 51.7895C102.468 51.3793 103.399 50.906 105.482 50.8744V52.3417C105.482 52.4522 105.466 52.6415 105.419 52.8308C105.166 53.5723 104.393 54.4401 103.021 54.4401Z" fill="white"/>
<path d="M118.845 43.4902L116.242 51.1737C116.179 51.363 116.116 51.5681 116.053 51.7575C115.989 51.5681 115.926 51.3788 115.847 51.2053L113.008 43.4902H109.111L114.002 55.7491L114.017 55.7807C114.096 55.9384 114.128 56.0331 114.128 56.0646C114.096 56.1277 114.049 56.254 114.017 56.3329C113.591 57.2322 112.96 58.0841 112.329 58.589L112.313 58.6048C111.603 59.2201 110.878 59.4883 110.578 59.5672L109.947 59.7723L110.862 62.833L111.446 62.7226C111.808 62.6595 113.071 62.3597 114.522 61.1449C116.258 59.5987 117.409 57.1533 118.924 53.1774L122.632 43.4902H118.845Z" fill="white"/>
<path d="M41.0635 43.7429C43.367 41.3921 47.2797 39.9879 51.5238 39.9879C53.1804 39.9879 54.7897 40.193 56.3201 40.619L56.4463 40.6506L59.1599 39.8302L57.9451 39.3568C55.6259 38.4733 52.9595 38 50.2143 38C46.2227 38 42.4992 38.9624 39.7382 40.7137L39.4385 40.903L40.5902 44.2635L41.0635 43.7429Z" fill="#FF0000"/>
</svg>
