<svg width="150" height="100" viewBox="0 0 150 100" fill="none" xmlns="http://www.w3.org/2000/svg">
<path d="M44.1789 77C43.6561 77 43.1334 76.9859 42.6177 76.9506C42.0738 76.9153 41.5298 76.8376 41 76.7246V67.4818C41.4804 67.3971 41.9607 67.3336 42.4482 67.2983C42.9709 67.2559 43.4583 67.2347 43.9105 67.2347C44.4685 67.2276 45.0337 67.2771 45.5847 67.3689C46.0438 67.4395 46.4889 67.5878 46.8986 67.8137C47.2518 68.0114 47.5485 68.3009 47.7604 68.6469C47.9653 68.9929 48.0713 69.4165 48.0713 69.9179C48.0713 70.6804 47.7039 71.2806 46.9693 71.7184C47.5768 71.9444 47.9865 72.2621 48.2055 72.6505C48.4315 73.06 48.5446 73.519 48.5375 73.985C48.5375 74.9876 48.1702 75.7361 47.4426 76.2374C46.7008 76.7529 45.62 77 44.1789 77ZM43.091 71.09H44.1365C44.8005 71.09 45.2668 71.0053 45.5564 70.8358C45.839 70.6663 45.9803 70.391 45.9803 70.0167C45.9803 69.6284 45.8319 69.3601 45.5423 69.2047C45.2456 69.0494 44.8147 68.9717 44.2495 68.9717C44.0659 68.9717 43.8681 68.9717 43.6561 68.9788C43.4442 68.9858 43.2605 68.9929 43.091 69.0141V71.09ZM43.091 72.7281V75.1924C43.2464 75.2136 43.416 75.2277 43.5996 75.2348C43.7833 75.2418 43.9882 75.2489 44.2071 75.2489C44.85 75.2489 45.3657 75.1571 45.7613 74.9735C46.1569 74.7899 46.3547 74.451 46.3547 73.9567C46.3547 73.5189 46.1922 73.2012 45.8602 73.0176C45.5282 72.827 45.0549 72.7352 44.4403 72.7352L43.091 72.7281Z" fill="white"/>
<path d="M52.0168 67.3428C52.0168 67.7303 51.8752 68.0373 51.5836 68.264C51.0005 68.7099 50.134 68.7099 49.5509 68.264C49.2676 68.0373 49.1177 67.7376 49.1177 67.3428C49.1177 66.9554 49.2593 66.6483 49.5509 66.4217C49.8258 66.2024 50.1924 66.0854 50.5673 66.0854C50.9421 66.0781 51.3087 66.2024 51.5836 66.4217C51.8752 66.6483 52.0168 66.9554 52.0168 67.3428ZM51.7836 77H49.3676V69.5067H51.7836V77Z" fill="white"/>
<path d="M52.6043 67.5738L54.8265 67.234V69.4169H57.5009V71.1661H54.8265V73.7682C54.8265 74.2092 54.9108 74.5633 55.0718 74.8236C55.2327 75.0838 55.5699 75.2211 56.0679 75.2211C56.3132 75.2211 56.5584 75.1994 56.8036 75.156C57.0411 75.1127 57.271 75.0549 57.5009 74.9826L57.8151 76.6161C57.5239 76.7245 57.2251 76.8185 56.9185 76.8836C56.5201 76.9631 56.1139 77.0064 55.7078 76.9992C55.1024 76.9992 54.5967 76.9197 54.1982 76.7679C53.8227 76.6306 53.4932 76.4065 53.2403 76.1174C52.9951 75.821 52.8188 75.4813 52.7422 75.1127C52.6426 74.6862 52.5966 74.2453 52.5966 73.8044L52.6043 67.5738Z" fill="white"/>
<path d="M57.8155 73.2597C57.8085 72.7688 57.8996 72.2779 58.0679 71.8147C58.3904 70.9228 59.0774 70.2038 59.9608 69.8304C60.4516 69.623 60.9844 69.5193 61.5172 69.5331C61.8678 69.5331 62.2253 69.5677 62.5688 69.6369C62.8843 69.706 63.1928 69.8028 63.4943 69.9272L63.0736 71.5312C62.8703 71.4552 62.653 71.3929 62.4426 71.3446C62.1903 71.2892 61.9379 71.2616 61.6785 71.2616C61.0755 71.2616 60.6268 71.4483 60.3324 71.8147C60.0379 72.1811 59.8907 72.6651 59.8907 73.2666C59.8907 73.9026 60.0309 74.4004 60.3043 74.7461C60.5848 75.0987 61.0685 75.2716 61.7556 75.2716C62.022 75.2716 62.2884 75.2508 62.5478 75.2024C62.8142 75.1609 63.0736 75.0918 63.326 74.9881L63.6134 76.6336C63.326 76.7442 63.0245 76.8341 62.7231 76.8894C62.3375 76.9654 61.9379 77 61.5453 77C60.8862 77 60.3254 76.9032 59.8486 76.7096C59.407 76.5368 59.0003 76.2672 58.6778 75.9215C58.3694 75.5827 58.138 75.1817 58.0118 74.7461C57.8786 74.2622 57.8155 73.7644 57.8155 73.2597Z" fill="white"/>
<path d="M70.571 73.2523C70.578 73.7718 70.4951 74.2914 70.3292 74.7832C70.1842 75.2266 69.9423 75.6284 69.6314 75.9678C69.3205 76.3003 68.9475 76.5567 68.5329 76.7298C67.6141 77.0901 66.5985 77.0901 65.6796 76.7298C65.2651 76.5567 64.892 76.3003 64.5811 75.9678C64.2633 75.6284 64.0215 75.2197 63.8695 74.7832C63.6967 74.2914 63.6069 73.7718 63.6138 73.2523C63.6069 72.7327 63.6967 72.2132 63.8764 71.7283C64.0353 71.2918 64.284 70.8901 64.6018 70.5575C64.9127 70.232 65.2927 69.9756 65.7072 69.8025C66.1494 69.6224 66.6261 69.5254 67.1028 69.5323C67.5864 69.5254 68.0631 69.6154 68.5122 69.8025C68.9267 69.9756 69.2998 70.232 69.6107 70.5575C69.9216 70.897 70.1703 71.2918 70.3223 71.7283C70.4881 72.2201 70.578 72.7327 70.571 73.2523ZM68.526 73.2523C68.526 72.6288 68.4017 72.1439 68.1529 71.7906C67.9042 71.4373 67.5519 71.2572 67.0959 71.2572C66.6399 71.2572 66.2807 71.4373 66.0319 71.7906C65.7832 72.1439 65.6519 72.6358 65.6519 73.2523C65.6519 73.8758 65.7763 74.3676 66.0319 74.7278C66.2807 75.095 66.6399 75.2751 67.0959 75.2751C67.5519 75.2751 67.9042 75.095 68.1529 74.7278C68.4017 74.3607 68.526 73.8688 68.526 73.2523Z" fill="white"/>
<path d="M74.0504 67.3428C74.0504 67.7303 73.9088 68.0373 73.6172 68.264C73.034 68.7099 72.1676 68.7099 71.5845 68.264C71.3012 68.0373 71.1512 67.7376 71.1512 67.3428C71.1512 66.9554 71.2929 66.6483 71.5845 66.4217C71.8594 66.2024 72.2259 66.0854 72.6008 66.0854C72.9757 66.0781 73.3423 66.2024 73.6172 66.4217C73.9088 66.6483 74.0504 66.9554 74.0504 67.3428ZM73.8255 77H71.4095V69.5067H73.8255V77Z" fill="white"/>
<path d="M74.6302 69.9524C75.0853 69.8312 75.5475 69.7315 76.0097 69.6673C76.5948 69.5747 77.187 69.5319 77.7793 69.5319C78.4076 69.5319 78.9276 69.6103 79.3465 69.7742C79.7293 69.9167 80.0688 70.1519 80.336 70.4583C80.5888 70.7647 80.7622 71.1282 80.8561 71.513C80.9644 71.9619 81.0149 72.418 81.0077 72.874V77H78.9132V73.1234C78.9132 72.4536 78.8265 71.9833 78.646 71.7054C78.4654 71.4274 78.1332 71.2921 77.6493 71.2921C77.4976 71.2921 77.3387 71.2992 77.1726 71.3134C77.0065 71.3277 76.8548 71.3419 76.7248 71.3633V77H74.6302V69.9524Z" fill="white"/>
<path d="M87.0233 76.9984C85.4388 76.9984 84.2361 76.5754 83.4079 75.7294C82.5797 74.8834 82.1692 73.6838 82.1692 72.1236C82.1548 71.4163 82.2844 70.709 82.5509 70.0502C82.7813 69.4747 83.1342 68.9477 83.588 68.5108C84.0345 68.0878 84.5674 67.7689 85.158 67.5608C85.7917 67.3389 86.4615 67.228 87.1385 67.2349C87.513 67.228 87.8947 67.2627 88.262 67.3251C88.5645 67.3736 88.8598 67.4429 89.1478 67.5262C89.3639 67.5886 89.58 67.6648 89.7816 67.7619C89.9472 67.8451 90.0697 67.9075 90.1489 67.9491L89.5151 69.648C89.1838 69.4816 88.831 69.3499 88.4709 69.2597C88.0315 69.1488 87.5706 69.0933 87.1169 69.1002C86.7784 69.1002 86.4471 69.1557 86.1302 69.2597C85.8061 69.3707 85.5181 69.551 85.2732 69.7798C85.0067 70.0433 84.8051 70.3553 84.6754 70.7021C84.5242 71.0834 84.4522 71.5411 84.4522 72.082C84.4522 72.4911 84.4954 72.8933 84.5962 73.2885C84.6826 73.6353 84.8483 73.9681 85.0715 74.2524C85.302 74.5298 85.5973 74.7517 85.9358 74.8973C86.2887 75.0568 86.7208 75.1331 87.2249 75.1331C87.513 75.1331 87.8011 75.1123 88.0819 75.0776C88.3124 75.0499 88.5357 75.0013 88.7589 74.9458C88.939 74.9042 89.1118 74.8488 89.2775 74.7794C89.4287 74.717 89.5655 74.6546 89.6808 74.6061L90.2857 76.298C89.9761 76.4783 89.5439 76.6378 88.9822 76.7834C88.3412 76.936 87.6858 77.0123 87.0233 76.9984Z" fill="#0AC18E"/>
<path d="M93.4463 69.5319C94.068 69.5319 94.5812 69.6015 94.9933 69.7337C95.3692 69.8451 95.7089 70.0469 95.9836 70.3183C96.2367 70.5758 96.4174 70.8959 96.5114 71.237C96.6198 71.6267 96.6704 72.0373 96.6632 72.4409V76.6443C96.3596 76.707 95.9475 76.7835 95.4125 76.867C94.7692 76.9575 94.1186 77.0062 93.4679 76.9993C93.0342 77.0062 92.5932 76.9645 92.1667 76.874C91.8125 76.8044 91.4655 76.6652 91.1619 76.4773C90.8799 76.2964 90.6558 76.0458 90.5113 75.7535C90.3594 75.4543 90.2872 75.0924 90.2872 74.654C90.2727 74.2851 90.3667 73.9232 90.5474 73.5962C90.7137 73.3108 90.9522 73.0742 91.2414 72.9072C91.545 72.7262 91.8848 72.601 92.239 72.5314C92.6221 72.4548 93.0197 72.4131 93.4101 72.4131C93.6487 72.4131 93.8945 72.427 94.133 72.4479C94.3065 72.4618 94.48 72.4896 94.6463 72.5383V72.3504C94.6463 72.0094 94.5378 71.7311 94.321 71.5223C94.1041 71.3135 93.7282 71.2091 93.1932 71.2091C92.839 71.2091 92.4848 71.237 92.1378 71.2857C91.8269 71.3274 91.5306 71.397 91.2342 71.4944L90.9667 69.866C91.0896 69.8312 91.2414 69.7894 91.4221 69.7477C91.6028 69.7059 91.8053 69.6711 92.0221 69.6363C92.239 69.6015 92.4631 69.5806 92.7017 69.5528C92.9547 69.5458 93.2005 69.5319 93.4463 69.5319ZM93.6125 75.4404C93.8222 75.4404 94.0173 75.4334 94.2053 75.4265C94.3571 75.4265 94.5089 75.4125 94.6535 75.3847V73.8537C94.5234 73.8258 94.4005 73.8119 94.2704 73.798C94.1186 73.7771 93.9595 73.7701 93.8077 73.7701C93.6198 73.7701 93.439 73.7841 93.2511 73.8049C93.092 73.8189 92.9402 73.8676 92.7956 73.9372C92.6727 73.9928 92.5643 74.0833 92.4848 74.1947C92.4053 74.313 92.3691 74.4591 92.3691 74.5983C92.3691 74.9115 92.4776 75.1342 92.7017 75.2525C92.9258 75.3847 93.2294 75.4404 93.6125 75.4404Z" fill="#0AC18E"/>
<path d="M99.8448 75.3784C100.234 75.3784 100.513 75.3438 100.675 75.2676C100.837 75.1983 100.918 75.0528 100.918 74.852C100.918 74.6926 100.815 74.5472 100.602 74.4294C100.293 74.2631 99.9697 74.1315 99.6391 74.0207C99.3305 73.9168 99.0219 73.7921 98.728 73.6536C98.4708 73.5427 98.243 73.3903 98.0373 73.2033C97.8462 73.0232 97.6919 72.8084 97.5964 72.5729C97.4862 72.2889 97.4348 71.9911 97.4421 71.6932C97.4421 71.0282 97.7066 70.5017 98.2283 70.1138C98.75 69.7259 99.4701 69.5319 100.389 69.5319C100.829 69.5319 101.27 69.5735 101.704 69.6497C102.042 69.7051 102.38 69.7882 102.703 69.8991L102.328 71.4646C102.064 71.3815 101.792 71.3053 101.52 71.2498C101.197 71.1806 100.874 71.1529 100.543 71.1529C99.8742 71.1529 99.5436 71.326 99.5436 71.6793C99.5436 71.7555 99.5583 71.8248 99.5877 71.8941C99.6244 71.9633 99.6832 72.0257 99.7567 72.0742C99.8669 72.1434 99.9844 72.2058 100.109 72.2612C100.293 72.3443 100.484 72.4205 100.675 72.4829C101.072 72.6214 101.461 72.7807 101.836 72.9678C102.101 73.0994 102.35 73.2726 102.556 73.4804C102.725 73.6536 102.857 73.8614 102.931 74.09C103.012 74.3463 103.048 74.6095 103.041 74.8727C103.041 75.5724 102.762 76.1058 102.203 76.459C101.645 76.8193 100.859 76.9994 99.8375 76.9994C99.2791 77.0063 98.7133 76.9578 98.1695 76.84C97.8536 76.7638 97.545 76.6738 97.2437 76.5699L97.6038 74.9351C97.9638 75.0667 98.3385 75.1775 98.7206 75.2537C99.088 75.3369 99.4701 75.3784 99.8448 75.3784Z" fill="#0AC18E"/>
<path d="M103.622 77V66.4244L105.716 66.0851V69.6296C105.897 69.5718 106.077 69.5285 106.258 69.4924C106.467 69.4491 106.684 69.4274 106.901 69.4274C107.5 69.4274 107.999 69.5068 108.396 69.6729C108.764 69.8173 109.096 70.0555 109.349 70.3659C109.595 70.6835 109.768 71.0445 109.855 71.4343C109.956 71.8891 110.007 72.3511 109.999 72.8131V76.9928H107.905V73.0657C107.905 72.3872 107.818 71.9107 107.645 71.6292C107.471 71.3477 107.146 71.2105 106.684 71.2105C106.504 71.2105 106.33 71.2249 106.157 71.261C106.005 71.2899 105.861 71.326 105.716 71.3693V76.9928H103.622V77Z" fill="#0AC18E"/>
<path d="M75.5 64.9362C87.1885 64.9362 96.6639 55.5484 96.6639 43.9681C96.6639 32.3877 87.1885 23 75.5 23C63.8115 23 54.3361 32.3877 54.3361 43.9681C54.3361 55.5484 63.8115 64.9362 75.5 64.9362Z" fill="#0AC18E"/>
<path d="M82.2069 36.6627C81.1395 34.2278 78.6988 33.7193 75.703 34.2206L74.7424 30.4681L72.4724 31.0553L73.4188 34.8007C72.8211 34.9583 72.2092 35.08 71.6043 35.2519L70.6579 31.528L68.388 32.1152L69.3486 35.8678C68.8576 36.0038 64.7731 37.0637 64.7731 37.0637L65.3993 39.5058C65.3993 39.5058 67.0644 39.0403 67.0502 39.0761C67.9681 38.8397 68.4093 39.2981 68.6157 39.7349L71.2556 50.0187C71.2912 50.3195 71.2414 50.8279 70.5939 50.9998C70.6294 51.0213 68.943 51.4295 68.943 51.4295L69.192 54.2725C69.192 54.2725 73.2409 53.2341 73.7746 53.0981L74.7495 56.8936L77.0194 56.3064L76.0446 52.4822C76.6708 52.3318 77.2756 52.1814 77.8662 52.031L78.834 55.8337L81.1039 55.2465L80.129 51.4581C83.6229 50.6059 86.0921 48.3859 85.5798 44.9985C85.2595 42.9575 83.0394 41.2746 81.1964 41.0884C82.3349 40.0715 82.9113 38.5891 82.2069 36.6627ZM81.1181 45.6073C81.5664 48.9659 76.9341 49.3741 75.397 49.7752L74.0664 44.7479C75.6034 44.354 80.3568 42.6496 81.1181 45.6073ZM78.3216 38.7681C78.7984 41.7544 74.8349 42.0982 73.554 42.4348L72.3372 37.8801C73.6252 37.5435 77.3468 36.0038 78.3216 38.7681Z" fill="white"/>
</svg>
