<svg width="150" height="100" viewBox="0 0 150 100" fill="none" xmlns="http://www.w3.org/2000/svg">
<path d="M48.7153 52.6967C47.4463 57.7422 42.2912 60.8129 37.2009 59.5547C32.1126 58.2967 29.015 53.1862 30.2846 48.141C31.5529 43.0948 36.708 40.0239 41.7969 41.2818C46.887 42.5398 49.9843 47.6509 48.7153 52.6967Z" fill="#F7931A"/>
<path d="M43.6873 49.0766C43.8764 47.8233 42.9139 47.1496 41.5977 46.7002L42.0246 45.0026L40.9822 44.7451L40.5666 46.398C40.2925 46.3303 40.0111 46.2664 39.7314 46.2031L40.15 44.5393L39.1082 44.2818L38.6809 45.9788C38.4541 45.9276 38.2314 45.877 38.0153 45.8237L38.0165 45.8184L36.5789 45.4626L36.3016 46.5663C36.3016 46.5663 37.075 46.742 37.0587 46.7529C37.4809 46.8574 37.5572 47.1343 37.5444 47.3539L37.0581 49.2879C37.0872 49.2952 37.1249 49.3058 37.1664 49.3223C37.1317 49.3138 37.0946 49.3044 37.0563 49.2952L36.3746 52.0044C36.3229 52.1316 36.192 52.3223 35.8969 52.2499C35.9073 52.2649 35.1392 52.0624 35.1392 52.0624L34.6217 53.2453L35.9782 53.5805C36.2306 53.6432 36.4779 53.7088 36.7214 53.7707L36.29 55.4877L37.3312 55.7452L37.7585 54.0464C38.0429 54.123 38.319 54.1936 38.5892 54.2601L38.1634 55.951L39.2059 56.2085L39.6373 54.4947C41.4148 54.8281 42.7514 54.6936 43.3141 53.0999C43.7674 51.8167 43.2915 51.0765 42.3563 50.5938C43.0374 50.4381 43.5504 49.9939 43.6873 49.0766ZM41.3055 52.3874C40.9834 53.6706 38.8039 52.9769 38.0972 52.8029L38.6697 50.5281C39.3763 50.703 41.6422 51.0491 41.3055 52.3874ZM41.628 49.058C41.334 50.2253 39.52 49.6322 38.9315 49.4868L39.4505 47.4237C40.039 47.5691 41.9341 47.8404 41.628 49.058Z" fill="white"/>
<path d="M57.8408 46.6996C58.6113 46.6996 59.277 46.8365 59.8363 47.1052C60.3984 47.3766 60.8621 47.7421 61.2341 48.2018C61.6011 48.6639 61.8743 49.204 62.0506 49.823C62.2258 50.4437 62.3137 51.1109 62.3137 51.8252C62.3137 52.9224 62.1109 53.959 61.7015 54.9362C61.292 55.9148 60.7365 56.7636 60.0299 57.4876C59.3239 58.2108 58.4902 58.7809 57.5288 59.202C56.5689 59.6235 55.5253 59.8342 54.4048 59.8342C54.2599 59.8342 54.0052 59.8301 53.6453 59.8227C53.2855 59.8154 52.8719 59.7786 52.4087 59.7165C51.9426 59.652 51.4498 59.5567 50.9293 59.4289C50.4091 59.3036 49.9151 59.1279 49.4498 58.9048L53.61 41.5764L57.3361 41.004L55.8466 47.1532C56.1654 47.0107 56.4867 46.9004 56.8073 46.82C57.1283 46.7408 57.4727 46.6996 57.8408 46.6996ZM54.7154 56.904C55.2765 56.904 55.8053 56.7671 56.302 56.4984C56.8002 56.2294 57.2301 55.8662 57.5903 55.4138C57.9504 54.9594 58.2354 54.4476 58.4433 53.8757C58.6511 53.3039 58.7562 52.7073 58.7562 52.0866C58.7562 51.324 58.6276 50.7292 58.3714 50.2992C58.1152 49.8709 57.641 49.6555 56.9525 49.6555C56.7269 49.6555 56.4362 49.6982 56.0758 49.7744C55.7141 49.8553 55.3905 50.0234 55.1005 50.2762L53.5144 56.8066C53.61 56.8233 53.6946 56.8392 53.7668 56.8542C53.8374 56.8704 53.9155 56.8819 53.9933 56.8899C54.0756 56.899 54.1697 56.9037 54.2834 56.9037C54.3971 56.9037 54.5393 56.904 54.7154 56.904Z" fill="white"/>
<path d="M66.1787 59.5011H62.6198L65.6253 46.9639H69.2086L66.1787 59.5011ZM67.9105 45.4364C67.4138 45.4364 66.9634 45.2899 66.5638 44.9961C66.1609 44.7042 65.9614 44.2547 65.9614 43.649C65.9614 43.3159 66.0297 43.0033 66.165 42.7084C66.3025 42.4141 66.4821 42.1606 66.7072 41.9452C66.9319 41.7315 67.1923 41.5608 67.488 41.4322C67.7855 41.3056 68.102 41.2424 68.4393 41.2424C68.9357 41.2424 69.3837 41.3889 69.7849 41.6827C70.1845 41.9779 70.3855 42.4273 70.3855 43.0298C70.3855 43.3641 70.3175 43.6779 70.1809 43.9722C70.0452 44.2665 69.8656 44.5199 69.6406 44.7354C69.4176 44.9493 69.1548 45.1194 68.8597 45.2469C68.5619 45.3755 68.2466 45.4364 67.9105 45.4364Z" fill="white"/>
<path d="M72.3269 43.8409L76.0545 43.2684L75.1392 46.9639H79.1313L78.4104 49.8712H74.4424L73.3854 54.2566C73.288 54.6221 73.2328 54.9635 73.2173 55.2808C73.1998 55.5995 73.2405 55.8732 73.3367 56.1037C73.4323 56.3347 73.6042 56.5128 73.8536 56.6388C74.1018 56.7668 74.4572 56.8313 74.9233 56.8313C75.3072 56.8313 75.6813 56.7951 76.043 56.7232C76.4025 56.6526 76.7668 56.5543 77.1355 56.4257L77.401 59.144C76.92 59.3188 76.3992 59.4692 75.8381 59.5958C75.2761 59.7241 74.6107 59.7859 73.8417 59.7859C72.7361 59.7859 71.8789 59.6232 71.2682 59.2991C70.6584 58.9727 70.2273 58.5268 69.9693 57.9623C69.7148 57.3999 69.6011 56.7515 69.6329 56.021C69.6658 55.2887 69.7772 54.5191 69.9693 53.7085L72.3269 43.8409Z" fill="white"/>
<path d="M78.9743 54.4962C78.9743 53.4163 79.1507 52.398 79.5031 51.4447C79.8549 50.4905 80.3617 49.6561 81.0194 48.94C81.6746 48.2275 82.473 47.663 83.4127 47.2486C84.3479 46.8365 85.3951 46.6287 86.5491 46.6287C87.2715 46.6287 87.9167 46.6964 88.4843 46.8321C89.0544 46.969 89.5701 47.1458 90.0365 47.3678L88.8092 50.1344C88.4885 50.0054 88.1557 49.8918 87.8116 49.7888C87.4672 49.6838 87.0468 49.6331 86.5494 49.6331C85.3615 49.6331 84.4224 50.039 83.7235 50.8481C83.0273 51.6578 82.6767 52.7476 82.6767 54.1147C82.6767 54.925 82.853 55.5802 83.2069 56.0814C83.5591 56.5826 84.2096 56.8319 85.154 56.8319C85.6201 56.8319 86.0699 56.7836 86.5007 56.6894C86.9348 56.5941 87.3181 56.474 87.6557 56.3321L87.9214 59.1682C87.4713 59.3413 86.9749 59.4975 86.4304 59.6344C85.8847 59.7665 85.2351 59.8351 84.4818 59.8351C83.4875 59.8351 82.6458 59.6909 81.9573 59.4069C81.2685 59.1185 80.6993 58.7355 80.251 58.2505C79.8003 57.7643 79.4767 57.1966 79.2766 56.5449C79.0764 55.8939 78.9743 55.2099 78.9743 54.4962Z" fill="white"/>
<path d="M94.7837 59.8345C93.9342 59.8345 93.1964 59.7062 92.5706 59.4522C91.9465 59.1982 91.4296 58.8418 91.0207 58.3797C90.6113 57.92 90.3049 57.3752 90.095 56.7474C89.8851 56.1199 89.7841 55.425 89.7841 54.6636C89.7841 53.7086 89.9388 52.7538 90.2515 51.8017C90.5626 50.8475 91.0243 49.9901 91.6353 49.2281C92.2416 48.465 92.9895 47.841 93.8701 47.3545C94.7498 46.8712 95.7617 46.6281 96.8982 46.6281C97.7322 46.6281 98.4661 46.7567 99.1006 47.0107C99.7321 47.2641 100.252 47.6235 100.663 48.0832C101.07 48.5453 101.379 49.0877 101.587 49.7164C101.796 50.3427 101.9 51.0394 101.9 51.8014C101.9 52.7535 101.747 53.7083 101.444 54.6633C101.141 55.6137 100.691 56.4731 100.098 57.2369C99.505 57.9988 98.7639 58.6225 97.8738 59.107C96.9849 59.5914 95.954 59.8345 94.7837 59.8345ZM96.5624 49.6328C96.0348 49.6328 95.5684 49.7847 95.169 50.0846C94.7682 50.388 94.4315 50.7695 94.1602 51.2295C93.8858 51.6916 93.6825 52.1955 93.545 52.7432C93.4087 53.2921 93.3419 53.811 93.3419 54.304C93.3419 55.0995 93.4714 55.7191 93.7258 56.1649C93.9838 56.6085 94.4473 56.8316 95.1209 56.8316C95.6503 56.8316 96.1144 56.6809 96.5161 56.3777C96.9145 56.0766 97.2515 55.6949 97.5249 55.234C97.7975 54.7743 98.0027 54.2689 98.1401 53.7203C98.2746 53.1732 98.3432 52.6514 98.3432 52.1593C98.3432 51.3658 98.2144 50.7448 97.9575 50.2995C97.701 49.8559 97.2355 49.6328 96.5624 49.6328Z" fill="white"/>
<path d="M105.779 59.5011H102.217L105.223 46.9639H108.808L105.779 59.5011ZM107.508 45.4364C107.012 45.4364 106.562 45.2899 106.163 44.9961C105.762 44.7042 105.561 44.2547 105.561 43.649C105.561 43.3159 105.63 43.0033 105.765 42.7084C105.901 42.4141 106.082 42.1606 106.307 41.9452C106.531 41.7315 106.793 41.5608 107.088 41.4322C107.384 41.3056 107.701 41.2424 108.037 41.2424C108.534 41.2424 108.984 41.3889 109.384 41.6827C109.785 41.9779 109.987 42.4273 109.987 43.0298C109.987 43.3641 109.915 43.6779 109.78 43.9722C109.646 44.2665 109.465 44.5199 109.241 44.7354C109.015 44.9493 108.756 45.1194 108.46 45.2469C108.162 45.3755 107.846 45.4364 107.508 45.4364Z" fill="white"/>
<path d="M111.371 47.5352C111.641 47.4569 111.943 47.3627 112.271 47.2603C112.6 47.1579 112.968 47.0625 113.379 46.9766C113.786 46.888 114.244 46.8162 114.749 46.7606C115.253 46.7038 115.828 46.6761 116.467 46.6761C118.344 46.6761 119.637 47.2179 120.352 48.2984C121.066 49.3788 121.189 50.8575 120.726 52.7317L119.089 59.5011H115.506L117.093 52.8742C117.19 52.4603 117.266 52.0604 117.322 51.6695C117.379 51.2822 117.375 50.9408 117.309 50.6453C117.246 50.3533 117.097 50.1143 116.866 49.9292C116.631 49.747 116.276 49.6555 115.795 49.6555C115.331 49.6555 114.859 49.7049 114.377 49.8003L112.044 59.5008H108.46L111.371 47.5352Z" fill="white"/>
</svg>
