<svg width="150" height="100" viewBox="0 0 150 100" fill="none" xmlns="http://www.w3.org/2000/svg">
<path d="M41.4049 73.9873C41.4031 74.0739 41.3671 74.1563 41.3048 74.2167C41.2425 74.2772 41.1588 74.3108 41.0718 74.3103H34.6747C34.837 75.8831 36.0242 77.3199 37.6982 77.3199C38.8426 77.3199 39.6882 76.8863 40.3287 75.9766C40.3689 75.9085 40.4332 75.8576 40.5089 75.834C40.5847 75.8105 40.6666 75.8158 40.7387 75.8491C40.7852 75.8698 40.8259 75.9015 40.8572 75.9415C40.8885 75.9816 40.9094 76.0287 40.918 76.0786C40.9333 76.1551 40.918 76.2344 40.8753 76.2997C40.2348 77.4134 38.9537 77.966 37.6896 77.966C35.5373 77.966 34 76.0531 34 73.9958C34 71.9384 35.5373 70.0255 37.6896 70.0255C39.8419 70.0255 41.4049 71.9384 41.4049 73.9873ZM40.7216 73.6727C40.5849 72.0999 39.3721 70.6631 37.6982 70.6631C36.0242 70.6631 34.837 72.0999 34.6747 73.6727H40.7216Z" fill="#CACACA"/>
<path d="M49.1684 70.187C49.2536 70.1898 49.3346 70.2247 49.3948 70.2847C49.4551 70.3447 49.4902 70.4253 49.493 70.5101C49.4936 70.5527 49.4857 70.595 49.4697 70.6345C49.4536 70.674 49.4297 70.7099 49.3994 70.7401C49.3692 70.7702 49.3331 70.794 49.2934 70.81C49.2537 70.8259 49.2112 70.8338 49.1684 70.8331H47.4517V77.5324C47.4504 77.6177 47.4158 77.6991 47.3552 77.7594C47.2946 77.8197 47.2128 77.8541 47.1272 77.8554C47.042 77.8527 46.961 77.8178 46.9007 77.7578C46.8405 77.6978 46.8054 77.6172 46.8026 77.5324V70.8331H45.1542C45.1114 70.8338 45.0689 70.8259 45.0292 70.81C44.9895 70.794 44.9535 70.7702 44.9232 70.7401C44.8929 70.7099 44.8691 70.674 44.853 70.6345C44.8369 70.595 44.829 70.5527 44.8297 70.5101C44.831 70.4248 44.8656 70.3434 44.9262 70.2831C44.9868 70.2228 45.0686 70.1883 45.1542 70.187H46.8026V67.7301C46.8004 67.6548 46.8249 67.5812 46.8717 67.5222C46.9186 67.4631 46.9848 67.4223 47.0588 67.407C47.1056 67.397 47.154 67.3977 47.2005 67.4089C47.247 67.4202 47.2903 67.4417 47.3273 67.4719C47.3642 67.5022 47.3938 67.5403 47.4139 67.5836C47.434 67.6268 47.444 67.674 47.4432 67.7216V70.187H49.1684Z" fill="#CACACA"/>
<path d="M59.6394 73.4261V77.4814C59.6366 77.5662 59.6015 77.6468 59.5413 77.7068C59.481 77.7668 59.4 77.8017 59.3148 77.8045C59.272 77.8051 59.2295 77.7973 59.1898 77.7813C59.1501 77.7653 59.1141 77.7415 59.0838 77.7114C59.0535 77.6812 59.0297 77.6453 59.0136 77.6058C58.9975 77.5663 58.9896 77.524 58.9903 77.4814V73.4261C58.9903 72.0574 58.2131 70.6886 56.6757 70.6886C54.7028 70.6886 53.8573 72.3974 53.9769 74.1573C53.9769 74.1998 54.0025 74.4038 54.0025 74.4293V77.4729C54.0047 77.5481 53.9802 77.6217 53.9334 77.6808C53.8865 77.7398 53.8203 77.7806 53.7463 77.7959C53.6995 77.8059 53.6511 77.8053 53.6046 77.794C53.5581 77.7828 53.5148 77.7613 53.4778 77.731C53.4409 77.7008 53.4113 77.6626 53.3912 77.6194C53.3711 77.5762 53.3611 77.529 53.3619 77.4814V64.1424C53.3632 64.0571 53.3979 63.9757 53.4584 63.9154C53.519 63.8551 53.6008 63.8207 53.6865 63.8193C53.7717 63.8221 53.8526 63.857 53.9129 63.917C53.9732 63.977 54.0082 64.0576 54.011 64.1424V71.6918C54.5576 70.7141 55.5484 70.051 56.6928 70.051C58.5633 70.051 59.6394 71.6918 59.6394 73.4261Z" fill="#CACACA"/>
<path d="M71.1097 73.9873C71.1079 74.0739 71.072 74.1563 71.0096 74.2167C70.9473 74.2772 70.8636 74.3108 70.7766 74.3103H64.3796C64.5418 75.8831 65.729 77.3199 67.403 77.3199C68.5475 77.3199 69.393 76.8863 70.0335 75.9766C70.0737 75.9085 70.138 75.8576 70.2138 75.834C70.2896 75.8105 70.3715 75.8158 70.4435 75.8491C70.4901 75.8698 70.5308 75.9015 70.562 75.9415C70.5933 75.9816 70.6142 76.0287 70.6229 76.0786C70.6382 76.1551 70.6228 76.2344 70.5802 76.2997C69.9396 77.4134 68.6585 77.966 67.3945 77.966C65.2422 77.966 63.7048 76.0531 63.7048 73.9958C63.7048 71.9384 65.2422 70.0255 67.3945 70.0255C69.5467 70.0255 71.1097 71.9384 71.1097 73.9873ZM70.4264 73.6727C70.2898 72.0999 69.077 70.6631 67.403 70.6631C65.729 70.6631 64.5418 72.0999 64.3796 73.6727H70.4264Z" fill="#CACACA"/>
<path d="M78.9672 70.4846C78.9718 70.5268 78.9676 70.5695 78.9547 70.61C78.9419 70.6505 78.9208 70.688 78.8927 70.7199C78.8646 70.7519 78.8301 70.7777 78.7915 70.7957C78.7529 70.8138 78.7109 70.8236 78.6682 70.8246C76.7893 71.0967 75.9437 72.627 75.9437 74.4038V77.4474C75.9459 77.5226 75.9214 77.5962 75.8746 77.6553C75.8278 77.7143 75.7615 77.7551 75.6875 77.7704C75.6407 77.7804 75.5923 77.7798 75.5458 77.7685C75.4993 77.7573 75.456 77.7357 75.4191 77.7055C75.3821 77.6753 75.3525 77.6371 75.3324 77.5939C75.3124 77.5507 75.3024 77.5035 75.3032 77.4559V70.5101C75.301 70.4349 75.3255 70.3613 75.3723 70.3022C75.4192 70.2431 75.4854 70.2024 75.5594 70.187C75.6062 70.177 75.6546 70.1777 75.7011 70.1889C75.7476 70.2002 75.7909 70.2217 75.8278 70.252C75.8648 70.2822 75.8944 70.3204 75.9145 70.3636C75.9345 70.4068 75.9445 70.454 75.9437 70.5016V71.9128C76.4733 71.0202 77.5238 70.1785 78.6255 70.1785C78.7793 70.187 78.9672 70.2975 78.9672 70.4846Z" fill="#CACACA"/>
<path d="M89.4809 73.9873C89.4791 74.0739 89.4432 74.1563 89.3808 74.2167C89.3185 74.2772 89.2348 74.3108 89.1478 74.3103H82.7508C82.913 75.8831 84.1002 77.3199 85.7742 77.3199C86.9187 77.3199 87.7642 76.8863 88.4048 75.9766C88.4449 75.9085 88.5092 75.8576 88.585 75.834C88.6608 75.8105 88.7427 75.8158 88.8147 75.8491C88.8613 75.8698 88.902 75.9015 88.9333 75.9415C88.9645 75.9816 88.9854 76.0287 88.9941 76.0786C89.0094 76.1551 88.994 76.2344 88.9514 76.2997C88.3108 77.4134 87.0297 77.966 85.7657 77.966C83.6134 77.966 82.076 76.0531 82.076 73.9958C82.076 71.9384 83.6134 70.0255 85.7657 70.0255C87.9179 70.0255 89.4724 71.9384 89.4809 73.9873ZM88.7891 73.6727C88.6524 72.0999 87.4397 70.6631 85.7657 70.6631C84.0917 70.6631 82.9045 72.0999 82.7422 73.6727H88.7891Z" fill="#CACACA"/>
<path d="M99.8067 70.5611V77.5239C99.8039 77.6087 99.7688 77.6893 99.7085 77.7493C99.6483 77.8093 99.5673 77.8442 99.4821 77.847C99.4393 77.8477 99.3968 77.8398 99.3571 77.8238C99.3174 77.8078 99.2814 77.784 99.2511 77.7539C99.2208 77.7238 99.1969 77.6879 99.1809 77.6484C99.1648 77.6089 99.1569 77.5666 99.1576 77.5239V76.1977C98.628 77.2434 97.6885 78 96.5014 78C94.5968 78 93.5463 76.3592 93.5463 74.6249V70.5441C93.5463 70.4584 93.5805 70.3763 93.6413 70.3157C93.7022 70.2551 93.7847 70.2211 93.8708 70.2211C93.9569 70.2211 94.0394 70.2551 94.1003 70.3157C94.1612 70.3763 94.1954 70.4584 94.1954 70.5441V74.6249C94.1954 75.9937 94.9726 77.3624 96.5099 77.3624C98.6622 77.3624 99.1661 75.356 99.1661 73.1456V70.5441C99.1664 70.4948 99.1783 70.4461 99.2006 70.402C99.2229 70.358 99.2552 70.3196 99.2949 70.29C99.3346 70.2604 99.3806 70.2403 99.4294 70.2313C99.4781 70.2222 99.5283 70.2246 99.5761 70.2381C99.6445 70.2597 99.7041 70.3029 99.7457 70.3612C99.7873 70.4195 99.8087 70.4897 99.8067 70.5611Z" fill="#CACACA"/>
<path d="M116 73.4006V77.4814C115.997 77.5662 115.962 77.6468 115.902 77.7068C115.842 77.7668 115.761 77.8017 115.675 77.8045C115.633 77.8052 115.59 77.7973 115.55 77.7813C115.511 77.7653 115.475 77.7415 115.444 77.7114C115.414 77.6813 115.39 77.6454 115.374 77.6059C115.358 77.5663 115.35 77.524 115.351 77.4814V73.4006C115.351 72.0319 114.574 70.6886 113.036 70.6886C111.115 70.6886 110.38 72.7375 110.38 74.3358V77.4814C110.377 77.5662 110.342 77.6468 110.282 77.7068C110.222 77.7668 110.141 77.8017 110.056 77.8045C110.013 77.8052 109.97 77.7973 109.931 77.7813C109.891 77.7653 109.855 77.7415 109.825 77.7114C109.794 77.6813 109.77 77.6454 109.754 77.6059C109.738 77.5663 109.73 77.524 109.731 77.4814V73.4006C109.731 72.0319 108.954 70.6886 107.417 70.6886C105.469 70.6886 104.666 72.2189 104.735 74.2423C104.735 74.2848 104.76 74.3783 104.735 74.4038V77.4729C104.737 77.5481 104.712 77.6217 104.666 77.6808C104.619 77.7399 104.553 77.7806 104.479 77.796C104.432 77.806 104.383 77.8053 104.337 77.7941C104.29 77.7828 104.247 77.7613 104.21 77.731C104.173 77.7008 104.144 77.6626 104.123 77.6194C104.103 77.5762 104.093 77.529 104.094 77.4814V70.5101C104.092 70.4349 104.116 70.3613 104.163 70.3022C104.21 70.2432 104.276 70.2024 104.35 70.187C104.397 70.1771 104.446 70.1777 104.492 70.189C104.539 70.2002 104.582 70.2217 104.619 70.252C104.656 70.2822 104.685 70.3204 104.705 70.3636C104.726 70.4068 104.736 70.454 104.735 70.5016V71.6663C105.281 70.6886 106.272 70.051 107.417 70.051C108.723 70.051 109.731 70.8757 110.141 72.0829C110.671 70.9012 111.695 70.051 113.028 70.051C114.924 70.051 116 71.6663 116 73.4006Z" fill="#CACACA"/>
<path opacity="0.6" d="M75.0043 34.8289L64.3112 39.6663L75.0043 45.966L85.7059 39.6663L75.0043 34.8289Z" fill="white"/>
<path opacity="0.45" d="M64.3112 39.6663L75.0043 45.966V22L64.3112 39.6663Z" fill="white"/>
<path opacity="0.8" d="M75.0043 22V45.966L85.6973 39.6663L75.0043 22Z" fill="white"/>
<path opacity="0.45" d="M64.3112 41.6897L75.0043 56.6865V47.9809L64.3112 41.6897Z" fill="white"/>
<path opacity="0.8" d="M75.0043 47.9809V56.6865L85.7059 41.6897L75.0043 47.9809Z" fill="white"/>
</svg>
