<svg width="150" height="100" viewBox="0 0 150 100" fill="none" xmlns="http://www.w3.org/2000/svg">
<path d="M72.7288 49.1226V58.796H69.6267V34.9071H77.8539C78.8359 34.8868 79.8123 35.0591 80.7267 35.414C81.641 35.769 82.4753 36.2996 83.1813 36.9752C83.8944 37.6097 84.462 38.388 84.8458 39.2576C85.2297 40.1272 85.4209 41.068 85.4067 42.0167C85.4271 42.9706 85.2388 43.9176 84.8547 44.7927C84.4706 45.6678 83.8998 46.4505 83.1813 47.0869C81.7427 48.4441 79.9669 49.122 77.8539 49.1207H72.7288V49.1226ZM72.7288 37.8481V46.1873H77.931C78.5013 46.204 79.0688 46.1028 79.5973 45.8901C80.1259 45.6774 80.6037 45.3579 81.0002 44.9521C81.3947 44.5727 81.7083 44.1189 81.9225 43.6175C82.1366 43.1161 82.2469 42.5773 82.2469 42.0329C82.2469 41.4886 82.1366 40.9498 81.9225 40.4484C81.7083 39.947 81.3947 39.4932 81.0002 39.1138C80.6086 38.6994 80.1325 38.3721 79.6033 38.1536C79.0742 37.9351 78.5041 37.8303 77.931 37.8462H72.7288V37.8481Z" fill="white"/>
<path d="M92.5549 41.9175C94.8477 41.9175 96.6575 42.5237 97.9844 43.7359C99.3113 44.9482 99.9741 46.6103 99.9728 48.7223V58.7959H97.0056V56.5277H96.8708C95.5863 58.3956 93.8779 59.3296 91.7456 59.3296C89.9255 59.3296 88.4027 58.7959 87.1773 57.7285C86.5893 57.2386 86.1191 56.625 85.8011 55.9326C85.4831 55.2401 85.3253 54.4862 85.3392 53.7257C85.3392 52.0344 85.9853 50.6893 87.2775 49.6905C88.5697 48.6918 90.2948 48.1911 92.4527 48.1886C94.2947 48.1886 95.8117 48.5221 97.0037 49.1892V48.4878C97.0072 47.9694 96.8941 47.4567 96.6724 46.9869C96.4508 46.5171 96.1263 46.102 95.7224 45.7716C94.9021 45.0395 93.833 44.64 92.7283 44.6528C90.9955 44.6528 89.6243 45.3758 88.6147 46.8219L85.8826 45.1198C87.3854 42.9849 89.6095 41.9175 92.5549 41.9175ZM88.5415 53.7924C88.5394 54.183 88.6317 54.5684 88.8106 54.9165C88.9896 55.2647 89.2501 55.5654 89.5703 55.7938C90.2564 56.3277 91.108 56.6105 91.9807 56.5944C93.2897 56.5922 94.5445 56.0768 95.47 55.161C96.4976 54.2041 97.0114 53.0815 97.0114 51.793C96.0442 51.0305 94.6955 50.6493 92.9653 50.6493C91.7052 50.6493 90.6545 50.9498 89.8131 51.5509C88.9634 52.1608 88.5415 52.9023 88.5415 53.7924Z" fill="white"/>
<path d="M117.005 42.4513L106.647 66.0009H103.445L107.289 57.7609L100.478 42.4513H103.849L108.772 54.1928H108.84L113.628 42.4513H117.005Z" fill="white"/>
<path d="M60.1933 47.0373C60.1945 46.1021 60.1145 45.1685 59.9544 44.2468H46.8718V49.5323H54.3649C54.2116 50.3765 53.887 51.1812 53.4109 51.898C52.9347 52.6148 52.3167 53.2287 51.5943 53.7028V57.1338H56.0662C58.6847 54.7455 60.1933 51.2135 60.1933 47.0373Z" fill="#4285F4"/>
<path d="M46.872 60.4485C50.6157 60.4485 53.7678 59.2324 56.0664 57.1357L51.5944 53.7047C50.3498 54.5396 48.7467 55.0161 46.872 55.0161C43.2536 55.0161 40.1824 52.603 39.0841 49.3513H34.4773V52.887C35.6319 55.16 37.4024 57.0708 39.5911 58.406C41.7798 59.7412 44.3006 60.4484 46.872 60.4485Z" fill="#34A853"/>
<path d="M39.084 49.3513C38.5034 47.6473 38.5034 45.8021 39.084 44.0981V40.5623H34.4772C33.5059 42.4744 33 44.5847 33 46.7247C33 48.8646 33.5059 50.9749 34.4772 52.887L39.084 49.3513Z" fill="#FBBC04"/>
<path d="M46.872 38.4332C48.8504 38.4013 50.762 39.1407 52.1937 40.4918L56.1531 36.5748C53.6424 34.2419 50.3163 32.9611 46.872 33.0009C44.3006 33.001 41.7798 33.7082 39.5911 35.0434C37.4024 36.3786 35.6319 38.2894 34.4773 40.5623L39.0841 44.0981C40.1824 40.8463 43.2536 38.4332 46.872 38.4332Z" fill="#EA4335"/>
</svg>
