<svg width="150" height="100" viewBox="0 0 150 100" fill="none" xmlns="http://www.w3.org/2000/svg">
<path d="M39.2819 35.0828C31.4399 35.0828 25.0815 41.5419 25.0815 49.5082C25.0815 57.4745 31.4399 63.9337 39.2819 63.9337C47.1238 63.9337 53.4822 57.4745 53.4822 49.5082C53.4659 41.5419 47.1238 35.0828 39.2819 35.0828ZM39.4938 49.972L38.0265 55.0399H45.9174C46.1945 55.0399 46.3739 55.3049 46.3087 55.5699L45.6239 57.9714C45.5587 58.2033 45.3468 58.3689 45.1022 58.3689H33.0376L35.0756 51.3632L32.8257 52.0753L33.3148 50.4191L35.581 49.707L38.4504 39.8692C38.5156 39.6373 38.7275 39.4717 38.9721 39.4717H42.0208C42.298 39.4717 42.4773 39.7367 42.4121 40.0017L39.9829 48.3158L42.2328 47.6036L41.7437 49.2764L39.4938 49.972Z" fill="#345D9D"/>
<path d="M61.6828 39.4552H60.8024C60.6394 39.4552 60.5252 39.5546 60.4926 39.7202L58.2102 58.0874C58.1939 58.2696 58.2428 58.3524 58.4221 58.3524H59.3025C59.4818 58.3524 59.5796 58.2696 59.6123 58.0874L61.911 39.7202C61.96 39.538 61.8621 39.4552 61.6828 39.4552Z" fill="#345D9D"/>
<path d="M66.2967 44.755H65.4163C65.2533 44.755 65.1391 44.8378 65.1065 45.02L63.4762 58.1039C63.4599 58.2861 63.5577 58.3689 63.7207 58.3689H64.6011C64.7642 58.3689 64.8783 58.2861 64.9109 58.1039L66.5249 45.0366C66.5412 44.8544 66.476 44.755 66.2967 44.755Z" fill="#345D9D"/>
<path d="M104.871 44.5397C103.648 44.5397 102.588 44.8875 101.692 45.5996C100.795 46.3118 100.208 47.2393 99.9145 48.3986C99.6699 49.3426 99.458 50.6676 99.3602 51.5619C99.2297 52.771 99.1156 53.7647 99.1156 54.7253C99.1319 55.9012 99.5069 56.8287 100.208 57.5408C100.925 58.2364 101.903 58.6008 103.143 58.6008C104.349 58.6008 105.409 58.253 106.305 57.5408C107.202 56.8452 107.789 55.9012 108.082 54.7253C108.278 53.9469 108.474 52.9035 108.637 51.5619C108.8 50.1707 108.881 49.1108 108.881 48.3821C108.881 47.2227 108.523 46.2952 107.805 45.5996C107.072 44.8875 106.093 44.5397 104.871 44.5397ZM107.349 50.2867C107.267 50.9492 107.218 51.3798 107.202 51.5619C107.039 52.92 106.892 53.8806 106.762 54.4603C106.566 55.3215 106.142 56.0171 105.507 56.5471C104.871 57.0771 104.121 57.3255 103.289 57.3255C102.442 57.3255 101.773 57.0605 101.268 56.5471C100.762 56.0337 100.518 55.3546 100.518 54.51C100.518 54.0628 100.567 53.4997 100.648 52.8372C100.73 52.1747 100.779 51.7441 100.795 51.5619C100.958 50.2701 101.105 49.3095 101.235 48.6636C101.431 47.8024 101.855 47.1068 102.49 46.5768C103.126 46.0468 103.876 45.7984 104.708 45.7984C105.555 45.7984 106.224 46.0634 106.729 46.5602C107.235 47.0737 107.479 47.7527 107.479 48.5974C107.479 49.0777 107.43 49.6242 107.349 50.2867Z" fill="#345D9D"/>
<path d="M113.903 44.755H113.039C112.876 44.755 112.762 44.8544 112.729 45.02L111.082 58.1039C111.066 58.2861 111.164 58.3689 111.327 58.3689H112.207C112.37 58.3689 112.484 58.2861 112.517 58.1039L114.131 45.0366C114.147 44.8544 114.082 44.755 113.903 44.755Z" fill="#345D9D"/>
<path d="M125.022 45.5333C124.419 44.8874 123.571 44.5728 122.462 44.5728C121.745 44.5728 121.093 44.7052 120.489 44.9868C119.886 45.2684 119.381 45.6824 118.957 46.2455C118.875 46.3118 118.843 46.2952 118.843 46.1958L118.973 45.0365C118.99 44.8709 118.924 44.7715 118.761 44.7715H117.881C117.718 44.7715 117.604 44.8709 117.571 45.0365L115.957 58.1039C115.941 58.2695 115.99 58.3689 116.169 58.3689H117.049C117.212 58.3689 117.327 58.2695 117.343 58.1039L118.517 48.7298C118.712 47.852 119.12 47.1399 119.723 46.6264C120.326 46.113 121.044 45.848 121.892 45.848C122.674 45.848 123.294 46.0965 123.75 46.5933C124.207 47.0902 124.435 47.7527 124.435 48.5973C124.435 48.8457 124.419 49.0445 124.402 49.1935L123.277 58.1039C123.277 58.1867 123.277 58.2364 123.31 58.2861C123.359 58.3357 123.424 58.3689 123.522 58.3689H124.402C124.565 58.3689 124.679 58.2861 124.696 58.1039L125.821 48.9782C125.853 48.6139 125.87 48.3489 125.87 48.1667C125.919 47.0405 125.625 46.1627 125.022 45.5333Z" fill="#345D9D"/>
<path d="M66.8673 39.4717C66.3456 39.1902 65.6772 39.3889 65.4163 39.9354C65.1391 40.4654 65.3511 41.1445 65.8728 41.426C66.3945 41.7076 67.0467 41.4923 67.3238 40.9623C67.601 40.4157 67.4053 39.7533 66.8673 39.4717Z" fill="#345D9D"/>
<path d="M114.539 39.4717C114.017 39.1902 113.349 39.3889 113.088 39.9354C112.811 40.4654 113.022 41.1445 113.544 41.426C114.066 41.7076 114.734 41.4923 115.011 40.9623C115.272 40.4157 115.06 39.7533 114.539 39.4717Z" fill="#345D9D"/>
<path d="M93.3931 44.5397C92.1703 44.5397 91.1106 44.904 90.2139 45.5996C89.3172 46.3118 88.7303 47.2393 88.4368 48.3986C88.1923 49.3426 87.964 50.8332 87.8825 51.5619C87.7684 52.6219 87.6379 53.7647 87.6379 54.7253C87.6542 55.9012 88.0292 56.8287 88.7303 57.5408C89.4476 58.2364 90.4258 58.6008 91.6649 58.6008C92.8713 58.6008 93.9311 58.253 94.8278 57.5408C95.7245 56.8452 96.3114 55.9012 96.6048 54.7253C96.6211 54.6259 96.6538 54.5265 96.6701 54.4272C96.6864 54.3444 96.6211 54.2781 96.5559 54.2781H95.4636C95.3984 54.2781 95.3169 54.3112 95.3006 54.4106C95.3006 54.4272 95.2843 54.4603 95.2843 54.4603C95.0886 55.3215 94.6647 56.0171 94.0289 56.5471C93.3931 57.0771 92.6431 57.3255 91.8116 57.3255C90.9638 57.3255 90.2954 57.0605 89.79 56.5471C89.2846 56.0337 89.04 55.3546 89.04 54.51C89.04 54.0628 89.0889 53.4997 89.1705 52.8372C89.2357 52.2741 89.3009 51.7441 89.3172 51.5619C89.4802 50.2701 89.627 49.3095 89.7574 48.6636C89.953 47.8024 90.3769 47.1068 91.0128 46.5768C91.6486 46.0468 92.3985 45.7984 93.23 45.7984C94.0615 45.7984 94.7462 46.0468 95.2517 46.5602C95.7571 47.0737 96.0016 47.7527 96.0016 48.5974V48.6139C96.0016 48.7299 96.0994 48.8292 96.2136 48.8292H97.2407C97.3222 48.8292 97.4037 48.763 97.4037 48.6636C97.4037 48.5477 97.4037 48.4483 97.4037 48.3489C97.4037 47.1896 97.045 46.2621 96.3277 45.5665C95.594 44.8875 94.6321 44.5397 93.3931 44.5397Z" fill="#345D9D"/>
<path d="M84.5403 45.5996C83.8229 44.904 82.8447 44.5397 81.6219 44.5397C80.3992 44.5397 79.3395 44.8875 78.4428 45.5996C77.5461 46.3118 76.9592 47.2393 76.6657 48.3986C76.4211 49.3426 76.307 50.1873 76.1114 51.5619C75.932 52.92 75.8668 53.7647 75.8668 54.7253C75.8831 55.9012 76.2581 56.8287 76.9592 57.5408C77.6765 58.2364 78.6547 58.6008 79.8938 58.6008C81.1002 58.6008 82.16 58.253 83.0567 57.5408C83.9533 56.8452 84.5403 55.9012 84.8337 54.7253C84.85 54.6259 84.8826 54.5265 84.8989 54.4272C84.9152 54.3444 84.8663 54.2781 84.7848 54.2781H83.6925C83.6273 54.2781 83.5458 54.3112 83.5295 54.4106C83.5295 54.4272 83.5132 54.4603 83.5132 54.4603C83.3175 55.3215 82.8936 56.0171 82.2578 56.5471C81.622 57.0771 80.872 57.3255 80.0405 57.3255C79.1927 57.3255 78.5243 57.0605 78.0189 56.5471C77.5135 56.0337 77.2689 55.3546 77.2689 54.51C77.2689 54.1125 77.3015 53.6156 77.3667 53.0525L85.2902 50.5517C85.4533 50.502 85.5185 50.4192 85.5511 50.2204C85.6 49.8064 85.6326 49.0942 85.6326 48.3655C85.6163 47.3221 85.2576 46.2952 84.5403 45.5996ZM84.2305 49.3592C84.2305 49.442 84.1816 49.5083 84.1001 49.5248L77.5298 51.5951C77.5298 51.5785 77.5298 51.5785 77.5298 51.5619C77.6928 50.2701 77.8395 49.3095 77.97 48.6636C78.1656 47.8024 78.5895 47.1068 79.2253 46.5768C79.8612 46.0468 80.6111 45.7984 81.4426 45.7984C82.2904 45.7984 82.9588 46.0634 83.4642 46.5602C84.2631 47.4049 84.2794 48.2661 84.2305 49.3592Z" fill="#345D9D"/>
<path d="M72.8507 56.928C73.0137 56.8452 73.193 56.9612 73.1604 57.1433L73.0463 58.0377C73.03 58.1536 72.9485 58.253 72.8507 58.3027C72.0681 58.6008 70.9758 58.7333 70.0954 58.3358C69.0846 57.8721 68.8237 56.8618 68.9704 55.6031L70.128 46.0137L70.291 44.6391L70.6823 41.5917C70.6986 41.4095 70.8127 41.3267 70.9921 41.3267H71.8398C72.0355 41.3267 72.0844 41.4426 72.0518 41.5917L71.5464 45.9309H74.3017C74.4647 45.9309 74.5299 46.0303 74.5299 46.1959L74.4484 46.8252C74.4321 46.9246 74.4158 46.9743 74.3669 47.0405C74.318 47.0902 74.2202 47.1068 74.1549 47.1068H71.416L70.454 54.9737C70.3562 55.8184 70.2421 56.5802 70.666 56.9943C71.2203 57.458 72.2963 57.193 72.8507 56.928Z" fill="#345D9D"/>
</svg>
