<svg width="150" height="100" viewBox="0 0 150 100" fill="none" xmlns="http://www.w3.org/2000/svg">
<path d="M103.021 40.7254C103.428 40.3985 103.632 40.2351 103.835 40.0717C106.664 37.6613 110.286 37.9269 112.708 40.7867C112.952 41.0726 113.074 41.0931 113.319 40.8479C113.481 40.6641 113.664 40.5211 113.827 40.3373C115.72 38.4784 118.223 37.9269 120.563 38.9687C123.025 40.0717 124.348 42.0123 124.369 44.729C124.409 50.5915 124.389 56.4336 124.389 62.2961C124.389 64.3797 123.107 65.687 121.051 65.687C120.237 65.687 119.423 65.6257 118.609 65.7074C117.775 65.7891 117.531 65.5236 117.531 64.6452C117.572 58.9257 117.551 53.2062 117.551 47.4867C117.551 47.2415 117.551 47.0168 117.551 46.7717C117.531 45.444 117.002 44.8925 115.74 44.8312C114.601 44.7699 113.807 45.4644 113.685 46.6287C113.664 46.8943 113.685 47.1803 113.685 47.4458C113.685 52.3891 113.685 57.312 113.685 62.2553C113.685 64.4205 112.443 65.687 110.286 65.6666C109.187 65.6462 107.702 66.1568 107.071 65.4419C106.522 64.8291 106.888 63.3788 106.888 62.2961C106.888 57.2303 106.888 52.144 106.888 47.0781C106.888 45.2806 105.728 44.3614 104.222 44.9742C103.286 45.3623 102.981 46.1181 102.981 47.0986C103.001 51.8376 102.981 56.5562 102.981 61.2952C102.981 61.6629 102.981 62.051 102.981 62.4187C102.92 64.4001 101.658 65.6462 99.7044 65.6666C98.8904 65.687 98.0764 65.6053 97.2624 65.687C96.3874 65.7687 96.1228 65.5236 96.1432 64.584C96.1839 56.5562 96.1635 48.5284 96.1635 40.4803C96.1635 40.133 96.1839 39.8062 96.1635 39.4589C96.1228 39.0095 96.306 38.8665 96.7537 38.8665C98.6259 38.887 100.478 38.887 102.35 38.8665C102.818 38.8665 103.042 38.9891 103.001 39.4998C102.96 39.8674 103.001 40.1943 103.021 40.7254Z" fill="#02B9EF"/>
<path d="M59.8795 51.7967C59.8795 54.5952 59.8795 57.3733 59.8795 60.1718C59.8591 63.8078 57.9666 65.687 54.3443 65.7075C52.757 65.7075 51.1494 65.7279 49.5621 65.7075C46.3468 65.6666 43.9862 63.5218 43.8234 60.2943C43.7013 57.9861 43.6809 55.6574 43.803 53.3492C43.9658 50.04 46.4892 47.7114 49.8266 47.6705C50.7017 47.6501 51.5971 47.6705 52.4721 47.6705C53.3268 47.6501 53.6524 47.1599 53.6321 46.3428C53.6321 45.5257 53.2658 45.158 52.4518 45.1989C51.536 45.2193 50.6203 45.2193 49.7045 45.1989C47.466 45.158 46.2247 43.9324 46.245 41.7263C46.245 40.8275 45.838 39.6223 46.4282 39.0912C46.9369 38.6418 48.0969 38.9278 48.9719 38.9278C51.2511 38.9074 53.51 38.9278 55.7892 38.9278C58.2108 38.9278 59.8591 40.5824 59.8795 43.0336C59.8998 45.9342 59.8795 48.8757 59.8795 51.7967ZM53.6524 56.4337C53.6524 56.0864 53.6524 55.7596 53.6524 55.4123C53.6524 53.3288 53.6524 53.3288 51.5767 53.4105C50.5389 53.4513 49.9691 53.9824 49.9487 55.065C49.9284 55.923 49.9284 56.7605 49.9487 57.6184C49.9691 59.0891 50.6203 59.4773 52.7367 59.5385C54.3036 59.5794 53.51 58.4763 53.6524 57.8635C53.7338 57.4141 53.6321 56.9035 53.6524 56.4337ZM77.9909 49.5702C77.9909 52.6955 78.0316 55.8413 77.9706 58.9666C77.9299 61.377 77.3601 63.5626 75.0402 64.8495C74.1041 65.3602 73.0866 65.6462 72.0284 65.6666C69.6882 65.7074 67.3479 65.6666 65.0077 65.7075C64.4379 65.7075 64.3158 65.5032 64.3361 64.9925C64.3768 64.1346 64.3158 63.2971 64.3565 62.4392C64.3972 60.805 65.6385 59.559 67.2665 59.4977C68.3247 59.4568 69.3626 59.4773 70.4208 59.4977C71.2754 59.4977 71.7435 59.1504 71.7435 58.2312C71.7435 57.2916 71.2958 56.9648 70.4411 56.9443C69.0166 56.9035 67.5921 57.1077 66.188 56.6992C63.7663 55.9843 61.9959 53.962 61.9348 51.4495C61.8127 47.4663 61.8941 43.483 61.8738 39.4998C61.8738 39.0504 62.0162 38.9074 62.4639 38.9278C64.1326 38.9482 65.781 38.9687 67.4497 38.9278C68.1823 38.9074 68.0805 39.3159 68.0805 39.7653C68.0805 42.7681 68.0805 45.7504 68.0805 48.7531C68.0805 50.0605 68.691 50.755 69.8306 50.7958C71.1737 50.8367 71.7638 50.2852 71.7638 48.9166C71.7638 45.8934 71.7842 42.8498 71.7435 39.8266C71.7435 39.1117 71.9266 38.9074 72.6389 38.9278C74.1244 38.9891 75.6303 39.0095 77.1159 38.9278C77.9299 38.887 78.052 39.1934 78.0316 39.9083C77.9706 43.1153 77.9909 46.3428 77.9909 49.5702ZM26.1393 54.2071C26.1393 50.8775 26.1393 47.5275 26.1393 44.198C26.1393 40.9297 28.1336 38.887 31.4099 38.9278C33.5467 38.9482 35.6834 38.6827 37.7998 39.0912C40.5064 39.6223 42.2157 41.7263 42.2361 44.5248C42.2565 47.4867 42.2361 50.4486 42.2361 53.4105C42.2361 57.1282 40.0587 59.3955 36.355 59.4977C35.2357 59.5385 34.1165 59.5181 32.9972 59.4977C32.4885 59.4773 32.2646 59.6407 32.285 60.1922C32.3257 61.0093 32.3053 61.8263 32.285 62.6434C32.2443 64.4001 31.0029 65.6666 29.2732 65.687C28.2557 65.7075 26.9737 66.116 26.3225 65.5236C25.712 64.9721 26.1597 63.6648 26.1393 62.6843C26.119 59.8654 26.1393 57.026 26.1393 54.2071ZM32.285 49.2025C32.285 49.8562 32.285 50.4894 32.285 51.1431C32.285 53.4513 32.285 53.4513 34.5845 53.2471C35.5817 53.1654 36.0497 52.6751 36.0701 51.6742C36.0904 50.5303 36.0294 49.3659 36.0904 48.222C36.2125 44.9129 35.602 45.2397 32.9158 45.2193C32.4274 45.2193 32.2646 45.3623 32.2646 45.8525C32.3053 46.9556 32.285 48.0791 32.285 49.2025Z" fill="#06306F"/>
<path d="M83.7498 54.2479C83.7498 51.5311 83.7294 48.7939 83.7701 46.0771C83.7701 45.4439 83.6277 45.1783 82.9358 45.1988C82.02 45.2396 80.799 45.5052 80.2903 45.0558C79.6594 44.4634 80.1478 43.1969 80.0664 42.2164C80.0664 42.1552 80.0664 42.0734 80.0664 42.0122C80.0664 41.0521 79.7612 39.9286 80.1682 39.2137C80.5752 38.4987 81.8165 38.9481 82.6916 38.7234C84.4213 38.274 85.7237 37.2731 86.7819 35.8841C87.5145 34.9445 88.4303 34.2704 89.6105 34.0457C90.2414 33.9231 90.628 34.0048 90.5873 34.8219C90.5263 35.9658 90.5873 37.1301 90.567 38.2945C90.5466 38.7847 90.7298 38.9481 91.2182 38.9277C92.0322 38.9073 92.8462 38.9481 93.6602 38.9073C94.1486 38.8869 94.3114 39.0707 94.291 39.5609C94.2707 41.2359 94.2707 42.8905 94.291 44.5655C94.291 45.0353 94.1689 45.2805 93.6602 45.2192C93.5584 45.1988 93.4567 45.2192 93.3549 45.2192C92.4595 45.3009 91.2182 44.8107 90.7501 45.4235C90.3024 45.9954 90.5873 47.1802 90.5873 48.0994C90.5873 53.6555 90.567 59.1912 90.6077 64.7473C90.6077 65.5235 90.4042 65.7686 89.6309 65.7073C88.8983 65.6461 88.1454 65.7073 87.3924 65.6869C85.1946 65.6052 83.7498 64.114 83.7498 61.9079C83.7498 59.3546 83.7498 56.8012 83.7498 54.2479Z" fill="#02B9EF"/>
</svg>
