<svg width="150" height="100" viewBox="0 0 150 100" fill="none" xmlns="http://www.w3.org/2000/svg">
<path d="M47.2035 53.9898C49.2747 45.2546 43.8432 36.5013 35.0721 34.4386C26.301 32.376 17.5116 37.7852 15.4404 46.5204C13.3693 55.2556 18.8008 64.0089 27.5719 66.0716C36.343 68.1342 45.1325 62.725 47.2035 53.9898Z" fill="#5F259F"/>
<path d="M97.5327 59.5431V53.6416C97.5327 52.1888 96.9859 51.4625 95.6182 51.4625C95.0714 51.4625 94.433 51.5533 94.0687 51.6441V60.2695C94.0687 60.5419 93.7953 60.8142 93.5212 60.8142H91.4248C91.1514 60.8142 90.8774 60.5419 90.8774 60.2695V50.1914C90.8774 49.8282 91.1514 49.5558 91.4248 49.465C92.7919 49.0111 94.1596 48.7387 95.6182 48.7387C98.9004 48.7387 100.723 50.4638 100.723 53.6416V60.3603C100.723 60.6326 100.45 60.905 100.177 60.905H98.9004C98.0796 60.905 97.5327 60.2695 97.5327 59.5431ZM105.738 56.0022L105.647 56.8193C105.647 57.9088 106.376 58.5444 107.561 58.5444C108.473 58.5444 109.293 58.272 110.205 57.818C110.296 57.818 110.388 57.7273 110.478 57.7273C110.661 57.7273 110.752 57.818 110.843 57.9088C110.934 57.9996 111.117 58.272 111.117 58.272C111.299 58.5444 111.481 58.9076 111.481 59.18C111.481 59.6339 111.208 60.0879 110.843 60.2695C109.84 60.8142 108.656 61.0866 107.379 61.0866C105.92 61.0866 104.735 60.7234 103.823 59.9971C102.912 59.18 102.365 58.0904 102.365 56.7285V53.1876C102.365 50.373 104.188 48.6479 107.288 48.6479C110.296 48.6479 112.029 50.2822 112.029 53.1876V55.3666C112.029 55.639 111.755 55.9114 111.481 55.9114H105.738V56.0022ZM105.647 54.0047H109.111V53.0968C109.111 52.0073 108.473 51.2809 107.379 51.2809C106.285 51.2809 105.647 51.9165 105.647 53.0968V54.0047ZM128.894 56.0022L128.803 56.8193C128.803 57.9088 129.533 58.5444 130.718 58.5444C131.629 58.5444 132.45 58.272 133.362 57.818C133.453 57.818 133.544 57.7273 133.635 57.7273C133.817 57.7273 133.909 57.818 134 57.9088C134.091 57.9996 134.273 58.272 134.273 58.272C134.455 58.5444 134.638 58.9076 134.638 59.18C134.638 59.6339 134.365 60.0879 134 60.2695C132.997 60.8142 131.812 61.0866 130.535 61.0866C129.077 61.0866 127.892 60.7234 126.98 59.9971C126.068 59.18 125.521 58.0904 125.521 56.7285V53.1876C125.521 50.373 127.344 48.6479 130.444 48.6479C133.453 48.6479 135.185 50.2822 135.185 53.1876V55.3666C135.185 55.639 134.911 55.9114 134.638 55.9114H128.894V56.0022ZM128.803 54.0047H132.268V53.0968C132.268 52.0073 131.629 51.2809 130.535 51.2809C129.441 51.2809 128.803 51.9165 128.803 53.0968V54.0047ZM75.1969 60.905H76.4733C76.7467 60.905 77.0203 60.6326 77.0203 60.3603V53.6416C77.0203 50.5546 75.3792 48.7387 72.6442 48.7387C71.8237 48.7387 70.9121 48.9203 70.3651 49.1019V45.7425C70.3651 45.0162 69.7269 44.3806 68.9976 44.3806H67.7212C67.4477 44.3806 67.1742 44.653 67.1742 44.9254V60.3603C67.1742 60.6326 67.4477 60.905 67.7212 60.905H69.818C70.0916 60.905 70.3651 60.6326 70.3651 60.3603V51.8257C70.8209 51.6441 71.4591 51.5533 71.9149 51.5533C73.2824 51.5533 73.8294 52.1888 73.8294 53.7324V59.6339C73.9206 60.2695 74.4676 60.905 75.1969 60.905ZM88.9629 53.2784V56.6377C88.9629 59.4523 87.0483 61.1774 83.8577 61.1774C80.758 61.1774 78.7524 59.4523 78.7524 56.6377V53.2784C78.7524 50.4638 80.667 48.7387 83.8577 48.7387C87.0483 48.7387 88.9629 50.4638 88.9629 53.2784ZM85.7722 53.2784C85.7722 52.1888 85.1338 51.4625 83.9492 51.4625C82.764 51.4625 82.1257 52.0981 82.1257 53.2784V56.6377C82.1257 57.7273 82.764 58.3628 83.9492 58.3628C85.1338 58.3628 85.7722 57.7273 85.7722 56.6377V53.2784ZM65.442 51.7349C65.442 54.6403 63.2541 56.6377 60.3367 56.6377C59.6074 56.6377 58.9692 56.547 58.331 56.2746V60.3603C58.331 60.6326 58.0575 60.905 57.784 60.905H55.6872C55.4137 60.905 55.1401 60.6326 55.1401 60.3603V45.9241C55.1401 45.561 55.4137 45.2886 55.6872 45.1978C57.0547 44.7438 58.4222 44.4714 59.8808 44.4714C63.1629 44.4714 65.442 46.4689 65.442 49.5558V51.7349ZM62.16 49.3742C62.16 47.9216 61.1572 47.1952 59.7897 47.1952C58.9692 47.1952 58.4222 47.4676 58.4222 47.4676V53.46C58.9692 53.7324 59.2427 53.8231 59.8808 53.8231C61.2484 53.8231 62.2512 53.006 62.2512 51.6441V49.3742H62.16ZM124.336 51.7349C124.336 54.6403 122.148 56.6377 119.231 56.6377C118.502 56.6377 117.863 56.547 117.225 56.2746V60.3603C117.225 60.6326 116.951 60.905 116.678 60.905H114.581C114.308 60.905 114.034 60.6326 114.034 60.3603V45.9241C114.034 45.561 114.308 45.2886 114.581 45.1978C115.949 44.7438 117.316 44.4714 118.775 44.4714C122.057 44.4714 124.336 46.4689 124.336 49.5558V51.7349ZM121.054 49.3742C121.054 47.9216 120.051 47.1952 118.683 47.1952C117.863 47.1952 117.316 47.4676 117.316 47.4676V53.46C117.863 53.7324 118.137 53.8231 118.775 53.8231C120.142 53.8231 121.145 53.006 121.145 51.6441V49.3742H121.054Z" fill="white"/>
<path d="M38.7298 46.0149C38.7298 45.3794 38.1829 44.8346 37.5447 44.8346H35.3567L30.3425 39.1146C29.8867 38.5698 29.1573 38.3882 28.428 38.5698L26.6958 39.1146C26.4223 39.2054 26.3311 39.5686 26.5135 39.7501L31.9835 44.9254H23.6873C23.4138 44.9254 23.2314 45.107 23.2314 45.3794V46.2872C23.2314 46.9228 23.7785 47.4676 24.4167 47.4676H25.693V51.8257C25.693 55.0942 27.4251 57.0009 30.3425 57.0009C31.2542 57.0009 31.9835 56.9101 32.8952 56.5469V59.4523C32.8952 60.2695 33.5334 60.905 34.3538 60.905H35.6302C35.9037 60.905 36.1772 60.6326 36.1772 60.3602V47.3768H38.274C38.5475 47.3768 38.7298 47.1952 38.7298 46.9228V46.0149ZM32.8952 53.8231C32.3481 54.0955 31.6188 54.1863 31.0718 54.1863C29.6131 54.1863 28.8838 53.46 28.8838 51.8257V47.4676H32.8952V53.8231Z" fill="white"/>
</svg>
