<svg width="150" height="100" viewBox="0 0 150 100" fill="none" xmlns="http://www.w3.org/2000/svg">
<path fill-rule="evenodd" clip-rule="evenodd" d="M30.6006 33.1371L25.0207 45.0234C24.9791 45.1184 24.9999 45.2238 25.0727 45.2871L40.1291 59.9367C40.2226 60.0211 40.3577 60.0211 40.4513 59.9367L55.5077 45.2871C55.5805 45.2133 55.6013 45.1078 55.5597 45.0234L49.9797 33.1371C49.9382 33.0527 49.8654 33 49.7719 33H30.8085C30.7149 33 30.6318 33.0527 30.6006 33.1371Z" fill="#50AF95"/>
<path fill-rule="evenodd" clip-rule="evenodd" d="M42.2282 46.2363C42.1243 46.2469 41.5632 46.2785 40.3162 46.2785C39.3291 46.2785 38.6225 46.2469 38.3731 46.2363C34.5389 46.0676 31.6814 45.3926 31.6814 44.5805C31.6814 43.7684 34.5389 43.0934 38.3731 42.9246V45.5719C38.6225 45.593 39.3395 45.6352 40.3266 45.6352C41.5112 45.6352 42.1139 45.5824 42.2178 45.5719V42.9246C46.0417 43.0934 48.8888 43.7789 48.8888 44.5805C48.8888 45.382 46.0417 46.0676 42.2282 46.2363ZM42.2282 42.6504V40.2879H47.5587V36.6809H33.0322V40.2879H38.3627V42.6504C34.0297 42.8508 30.767 43.7262 30.767 44.7703C30.767 45.8145 34.0297 46.6898 38.3627 46.8902V54.4734H42.2178V46.8902C46.5404 46.6898 49.7928 45.8145 49.7928 44.7703C49.7928 43.7262 46.5508 42.8508 42.2282 42.6504Z" fill="white"/>
<path d="M92.8944 43.9582C93.4452 43.2727 94.0374 42.7453 94.8064 42.5027C96.4689 41.9859 98.0691 42.0703 99.5031 43.1777C100.345 43.8211 100.76 44.7492 100.999 45.7617C101.166 46.4473 101.228 47.1434 101.228 47.85C101.228 49.8328 101.228 51.8156 101.238 53.809C101.238 54.0727 101.166 54.1254 100.916 54.1254C100.137 54.1148 99.368 54.1148 98.5887 54.1254C98.3809 54.1254 98.3393 54.0621 98.3393 53.8723C98.3497 51.8578 98.3393 49.8328 98.3393 47.8184C98.3393 47.2594 98.2458 46.7215 97.9964 46.2152C97.5808 45.3504 96.6768 44.8652 95.6273 44.9285C94.1829 45.0234 93.0815 46.1098 92.9152 47.6074C92.884 47.85 92.8737 48.0926 92.8737 48.3352C92.8737 50.1809 92.8737 52.016 92.8841 53.8617C92.8841 54.0621 92.8425 54.1359 92.6243 54.1254C91.8242 54.1148 91.0241 54.1148 90.224 54.1254C90.0577 54.1254 89.9954 54.0832 89.9954 53.9039V37.7039C89.9954 37.5141 90.0577 37.4719 90.2344 37.4719C91.0345 37.4824 91.8346 37.4824 92.6347 37.4719C92.8321 37.4719 92.8737 37.5352 92.8737 37.725C92.8633 39.6973 92.8737 41.6801 92.8737 43.6523C92.8944 43.7156 92.8944 43.8 92.8944 43.9582ZM75.6559 49.2844H71.3956C71.167 49.2844 71.1358 49.3371 71.1878 49.5586C71.4164 50.4762 71.9775 51.109 72.8191 51.4359C74.4089 52.0582 75.926 51.8367 77.3496 50.9402C77.7029 50.7188 77.6821 50.6977 77.9938 51.0035C78.4406 51.457 78.8771 51.9 79.3343 52.343C79.4693 52.4801 79.4797 52.5539 79.3343 52.691C78.4199 53.5348 77.3392 54.0094 76.1442 54.252C74.7622 54.5367 73.3906 54.4945 72.0502 54.041C70.263 53.4398 69.0576 52.227 68.4965 50.3918C68.0289 48.873 68.0185 47.3332 68.5588 45.8355C69.3278 43.7051 70.8968 42.5238 73.0685 42.1336C74.1388 41.9438 75.209 41.9859 76.2585 42.2707C78.212 42.7875 79.4278 44.0637 79.9577 46.0254C80.2279 47.0484 80.2591 48.0926 80.1759 49.1367C80.1551 49.3371 80.0408 49.2844 79.9369 49.2844H75.6559ZM74.2946 46.8691H77.1625C77.3392 46.8691 77.4119 46.848 77.36 46.6371C77.1729 45.7934 76.695 45.2133 75.9156 44.8863C75.3753 44.6543 74.8038 44.6016 74.2219 44.6121C72.8087 44.6543 71.7073 45.4031 71.2605 46.6371C71.1878 46.827 71.2189 46.8797 71.4267 46.8691H74.2946ZM110.008 49.2844H105.748C105.519 49.2844 105.488 49.3477 105.54 49.5586C105.769 50.4867 106.34 51.1195 107.203 51.4465C108.751 52.0371 110.247 51.8262 111.66 50.9824C111.796 50.898 111.899 50.6977 112.055 50.7293C112.19 50.7609 112.284 50.9297 112.398 51.0457C112.824 51.4676 113.24 51.9 113.676 52.3113C113.863 52.4906 113.832 52.5856 113.656 52.7332C112.824 53.482 111.848 53.9461 110.767 54.1992C109.302 54.5473 107.837 54.5262 106.403 54.041C104.262 53.3133 103.046 51.7629 102.652 49.5375C102.413 48.1875 102.485 46.848 103.026 45.5719C103.857 43.5891 105.384 42.4922 107.452 42.1336C108.564 41.9438 109.676 41.9965 110.756 42.3129C112.752 42.893 113.926 44.2641 114.383 46.2996C114.591 47.2277 114.612 48.1664 114.539 49.1156C114.528 49.316 114.424 49.2949 114.3 49.2949C112.866 49.2844 111.432 49.2844 110.008 49.2844ZM108.658 46.8691H111.557C111.723 46.8691 111.764 46.8375 111.733 46.6582C111.546 45.7934 111.058 45.2027 110.258 44.8758C109.613 44.6121 108.938 44.5594 108.263 44.6438C107.047 44.7914 106.122 45.382 105.655 46.5738C105.54 46.8691 105.54 46.8691 105.842 46.8691H108.658ZM60.9735 47.7973C60.9735 46.9641 60.9631 46.1203 60.9735 45.2871C60.9735 45.0867 60.9111 45.034 60.7241 45.0445C60.163 45.0551 59.6018 45.0445 59.0407 45.0551C58.8745 45.0551 58.8121 45.0234 58.8121 44.8441C58.8225 44.148 58.8225 43.452 58.8121 42.7559C58.8121 42.5766 58.8641 42.5344 59.0303 42.5344C59.6018 42.5449 60.1733 42.5344 60.7345 42.5449C60.9319 42.5449 60.9631 42.4816 60.9631 42.3023C60.9527 41.4586 60.9631 40.6148 60.9527 39.7605C60.9527 39.5918 60.9735 39.518 61.1709 39.4969C62.0022 39.423 62.823 39.3281 63.6543 39.2227C63.831 39.2016 63.8414 39.2754 63.8414 39.4125C63.8414 40.3617 63.8414 41.3215 63.831 42.2707C63.831 42.4816 63.8933 42.5344 64.0907 42.5344C64.9947 42.5238 65.8884 42.5344 66.7924 42.5238C66.9794 42.5238 67.0314 42.5766 67.021 42.7664C67.0106 43.452 67.0106 44.1375 67.021 44.823C67.021 45.0023 66.969 45.0445 66.8028 45.0445C65.8988 45.034 65.0051 45.0445 64.1011 45.034C63.8725 45.034 63.7998 45.0762 63.7998 45.3293C63.8102 46.9008 63.8102 48.4723 63.8102 50.0543C63.8102 51.341 64.5791 51.9738 65.826 51.6996C66.065 51.6469 66.304 51.5731 66.5326 51.4676C66.6469 51.4148 66.6989 51.4148 66.7404 51.552C66.969 52.2797 67.208 53.018 67.447 53.7457C67.4782 53.8406 67.4886 53.8934 67.3743 53.9355C65.9923 54.4418 64.5791 54.6211 63.1763 54.0727C61.9918 53.6086 61.3683 52.6488 61.0981 51.4254C61.0046 50.9824 60.9735 50.5289 60.9631 50.0754C60.9735 49.3266 60.9735 48.5672 60.9735 47.7973ZM82.4411 47.7762V45.1395C82.4411 44.9707 82.3996 44.9074 82.2229 44.918C81.641 44.9285 81.0695 44.918 80.4877 44.9285C80.3318 44.9285 80.2694 44.8863 80.2694 44.7176C80.2798 44.0215 80.2798 43.3254 80.2694 42.6293C80.2694 42.4711 80.311 42.4184 80.4773 42.4184C81.0488 42.4289 81.6203 42.4078 82.1814 42.4289C82.3996 42.4395 82.4308 42.3551 82.4308 42.1547C82.4204 41.3004 82.4308 40.4461 82.4204 39.5918C82.4204 39.4652 82.4308 39.3809 82.597 39.3598C83.4179 39.2859 84.2388 39.2016 85.0597 39.0961C85.2571 39.075 85.3091 39.1172 85.3091 39.3176C85.2987 40.2773 85.309 41.2266 85.2987 42.1863C85.2987 42.3762 85.3506 42.4289 85.5273 42.4184C86.4313 42.4078 87.3457 42.4184 88.2497 42.4078C88.4367 42.4078 88.4783 42.4605 88.4783 42.6504C88.4679 43.3254 88.4679 44.0109 88.4783 44.6859C88.4783 44.8758 88.4263 44.918 88.2393 44.918C87.3353 44.9074 86.4209 44.918 85.5169 44.9074C85.3194 44.9074 85.2675 44.9602 85.2675 45.1605C85.2779 46.7742 85.2675 48.3879 85.2779 50.0121C85.2779 50.8242 85.6312 51.3832 86.2546 51.5625C86.8053 51.7207 87.3353 51.6047 87.8548 51.4043C88.1562 51.2883 88.1562 51.2883 88.2705 51.6047C88.4887 52.2586 88.6965 52.923 88.9043 53.577C88.9355 53.6719 88.9771 53.7563 88.8316 53.809C87.5015 54.2941 86.1507 54.4629 84.7895 53.9988C83.4595 53.5453 82.7944 52.5012 82.5347 51.1512C82.3684 50.2758 82.4515 49.4004 82.4308 48.525C82.4412 48.2824 82.4411 48.0293 82.4411 47.7762ZM118.986 43.6945C119.194 43.4203 119.371 43.1672 119.589 42.9563C120.15 42.4289 120.825 42.1758 121.573 42.102C122.737 41.9859 123.839 42.1863 124.826 42.8613C125.241 43.1461 125.231 43.1461 125.013 43.5996C124.701 44.2219 124.369 44.8441 124.067 45.4664C123.974 45.6563 123.911 45.7195 123.714 45.5613C122.675 44.7492 120.96 44.7598 119.952 45.5719C119.277 46.1203 119.017 46.8797 119.007 47.7234C118.986 49.759 118.986 51.7945 118.996 53.8301C118.996 54.0832 118.924 54.1254 118.695 54.1254C117.916 54.1148 117.126 54.1148 116.347 54.1254C116.17 54.1254 116.129 54.0727 116.129 53.9039V42.6293C116.129 42.4395 116.181 42.3973 116.368 42.3973C117.105 42.4078 117.854 42.4078 118.591 42.3973C118.747 42.3973 118.799 42.4395 118.82 42.5977C118.861 42.9457 118.924 43.3043 118.986 43.6945Z" fill="white"/>
<path d="M71.7045 75V69.1818H75.2159V69.8068H72.4091V71.7727H75.0341V72.3977H72.4091V74.375H75.2614V75H71.7045ZM76.4858 75V69.1818H78.4517C78.9063 69.1818 79.2794 69.2595 79.571 69.4148C79.8627 69.5682 80.0786 69.7794 80.2188 70.0483C80.3589 70.3172 80.429 70.6231 80.429 70.9659C80.429 71.3087 80.3589 71.6127 80.2188 71.8778C80.0786 72.143 79.8636 72.3513 79.5739 72.5028C79.2841 72.6525 78.9138 72.7273 78.4631 72.7273H76.8722V72.0909H78.4403C78.7509 72.0909 79.0009 72.0455 79.1903 71.9545C79.3816 71.8636 79.5199 71.7348 79.6051 71.5682C79.6922 71.3996 79.7358 71.1989 79.7358 70.9659C79.7358 70.733 79.6922 70.5294 79.6051 70.3551C79.518 70.1809 79.3788 70.0464 79.1875 69.9517C78.9962 69.8551 78.7434 69.8068 78.429 69.8068H77.1903V75H76.4858ZM79.2244 72.3864L80.6562 75H79.8381L78.429 72.3864H79.2244ZM86.2848 71H85.5803C85.5386 70.7973 85.4657 70.6193 85.3615 70.4659C85.2592 70.3125 85.1342 70.1837 84.9865 70.0795C84.8407 69.9735 84.6787 69.8939 84.5007 69.8409C84.3227 69.7879 84.1371 69.7614 83.9439 69.7614C83.5916 69.7614 83.2725 69.8504 82.9865 70.0284C82.7024 70.2064 82.4761 70.4688 82.3075 70.8153C82.1409 71.1619 82.0575 71.5871 82.0575 72.0909C82.0575 72.5947 82.1409 73.0199 82.3075 73.3665C82.4761 73.7131 82.7024 73.9754 82.9865 74.1534C83.2725 74.3314 83.5916 74.4205 83.9439 74.4205C84.1371 74.4205 84.3227 74.3939 84.5007 74.3409C84.6787 74.2879 84.8407 74.2093 84.9865 74.1051C85.1342 73.9991 85.2592 73.8693 85.3615 73.7159C85.4657 73.5606 85.5386 73.3826 85.5803 73.1818H86.2848C86.2318 73.4792 86.1352 73.7453 85.995 73.9801C85.8549 74.215 85.6806 74.4148 85.4723 74.5795C85.264 74.7424 85.0301 74.8665 84.7706 74.9517C84.513 75.0369 84.2375 75.0795 83.9439 75.0795C83.4477 75.0795 83.0064 74.9583 82.62 74.7159C82.2337 74.4735 81.9297 74.1288 81.7081 73.6818C81.4865 73.2348 81.3757 72.7045 81.3757 72.0909C81.3757 71.4773 81.4865 70.947 81.7081 70.5C81.9297 70.053 82.2337 69.7083 82.62 69.4659C83.0064 69.2235 83.4477 69.1023 83.9439 69.1023C84.2375 69.1023 84.513 69.1449 84.7706 69.2301C85.0301 69.3153 85.264 69.4403 85.4723 69.6051C85.6806 69.768 85.8549 69.9669 85.995 70.2017C86.1352 70.4347 86.2318 70.7008 86.2848 71ZM87.321 75V74.4886L89.2415 72.3864C89.4669 72.1402 89.6525 71.9261 89.7983 71.7443C89.9441 71.5606 90.0521 71.3883 90.1222 71.2273C90.1941 71.0644 90.2301 70.8939 90.2301 70.7159C90.2301 70.5114 90.1809 70.3343 90.0824 70.1847C89.9858 70.035 89.8532 69.9195 89.6847 69.8381C89.5161 69.7566 89.3267 69.7159 89.1165 69.7159C88.893 69.7159 88.6979 69.7623 88.5312 69.8551C88.3665 69.946 88.2386 70.0739 88.1477 70.2386C88.0587 70.4034 88.0142 70.5966 88.0142 70.8182H87.3438C87.3438 70.4773 87.4223 70.178 87.5795 69.9205C87.7367 69.6629 87.9508 69.4621 88.2216 69.3182C88.4943 69.1742 88.8002 69.1023 89.1392 69.1023C89.4801 69.1023 89.7822 69.1742 90.0455 69.3182C90.3087 69.4621 90.5152 69.6562 90.6648 69.9006C90.8144 70.1449 90.8892 70.4167 90.8892 70.7159C90.8892 70.9299 90.8504 71.1392 90.7727 71.3438C90.697 71.5464 90.5644 71.7727 90.375 72.0227C90.1875 72.2708 89.9271 72.5739 89.5938 72.9318L88.2869 74.3295V74.375H90.9915V75H87.321ZM94.0625 75.0795C93.6345 75.0795 93.2699 74.9631 92.9688 74.7301C92.6676 74.4953 92.4375 74.1553 92.2784 73.7102C92.1193 73.2633 92.0398 72.7235 92.0398 72.0909C92.0398 71.4621 92.1193 70.9252 92.2784 70.4801C92.4394 70.0331 92.6705 69.6922 92.9716 69.4574C93.2746 69.2206 93.6383 69.1023 94.0625 69.1023C94.4867 69.1023 94.8494 69.2206 95.1506 69.4574C95.4536 69.6922 95.6847 70.0331 95.8438 70.4801C96.0047 70.9252 96.0852 71.4621 96.0852 72.0909C96.0852 72.7235 96.0057 73.2633 95.8466 73.7102C95.6875 74.1553 95.4574 74.4953 95.1562 74.7301C94.8551 74.9631 94.4905 75.0795 94.0625 75.0795ZM94.0625 74.4545C94.4867 74.4545 94.8163 74.25 95.0511 73.8409C95.286 73.4318 95.4034 72.8485 95.4034 72.0909C95.4034 71.5871 95.3494 71.1581 95.2415 70.804C95.1354 70.4498 94.982 70.1799 94.7812 69.9943C94.5824 69.8087 94.3428 69.7159 94.0625 69.7159C93.642 69.7159 93.3134 69.9233 93.0767 70.3381C92.84 70.7509 92.7216 71.3352 92.7216 72.0909C92.7216 72.5947 92.7746 73.0227 92.8807 73.375C92.9867 73.7273 93.1392 73.9953 93.3381 74.179C93.5388 74.3627 93.7803 74.4545 94.0625 74.4545Z" fill="#9F9F9F"/>
<circle cx="61" cy="72" r="7" fill="#E4E4E4"/>
<path d="M60.7897 73.4103L63.5726 71.6895L60.7897 67V73.4103Z" fill="#5E5E5E"/>
<path d="M60.7896 67L58 71.6895L60.7896 73.4103V67Z" fill="#9F9F9F"/>
<path d="M60.7897 76.0498L63.5726 72.0597L60.7897 73.8971V76.0498Z" fill="#5E5E5E"/>
<path d="M60.7896 73.8971L58 72.0597L60.7896 76.0498V73.8971Z" fill="#9F9F9F"/>
<path d="M60.7897 69.9686V73.4103L63.5726 71.6895L60.7897 69.9686Z" fill="#4A4A4A"/>
<path d="M60.7896 69.9686L58 71.6895L60.7896 73.4103V69.9686Z" fill="#717171"/>
</svg>
