<svg width="150" height="100" viewBox="0 0 150 100" fill="none" xmlns="http://www.w3.org/2000/svg">
<path fill-rule="evenodd" clip-rule="evenodd" d="M30.6006 33.1371L25.0207 45.0234C24.9791 45.1184 24.9999 45.2238 25.0727 45.2871L40.1291 59.9367C40.2226 60.0211 40.3577 60.0211 40.4513 59.9367L55.5077 45.2871C55.5805 45.2133 55.6013 45.1078 55.5597 45.0234L49.9797 33.1371C49.9382 33.0527 49.8654 33 49.7719 33H30.8085C30.7149 33 30.6318 33.0527 30.6006 33.1371Z" fill="#50AF95"/>
<path fill-rule="evenodd" clip-rule="evenodd" d="M42.2282 46.2363C42.1243 46.2469 41.5632 46.2785 40.3162 46.2785C39.3291 46.2785 38.6225 46.2469 38.3731 46.2363C34.5389 46.0676 31.6814 45.3926 31.6814 44.5805C31.6814 43.7684 34.5389 43.0934 38.3731 42.9246V45.5719C38.6225 45.593 39.3395 45.6352 40.3266 45.6352C41.5112 45.6352 42.1139 45.5824 42.2178 45.5719V42.9246C46.0417 43.0934 48.8888 43.7789 48.8888 44.5805C48.8888 45.382 46.0417 46.0676 42.2282 46.2363ZM42.2282 42.6504V40.2879H47.5587V36.6809H33.0322V40.2879H38.3627V42.6504C34.0297 42.8508 30.767 43.7262 30.767 44.7703C30.767 45.8145 34.0297 46.6898 38.3627 46.8902V54.4734H42.2178V46.8902C46.5404 46.6898 49.7928 45.8145 49.7928 44.7703C49.7928 43.7262 46.5508 42.8508 42.2282 42.6504Z" fill="white"/>
<path d="M92.8944 43.9582C93.4452 43.2727 94.0374 42.7453 94.8064 42.5027C96.4689 41.9859 98.0691 42.0703 99.5031 43.1777C100.345 43.8211 100.76 44.7492 100.999 45.7617C101.166 46.4473 101.228 47.1434 101.228 47.85C101.228 49.8328 101.228 51.8156 101.238 53.809C101.238 54.0727 101.166 54.1254 100.916 54.1254C100.137 54.1148 99.368 54.1148 98.5887 54.1254C98.3809 54.1254 98.3393 54.0621 98.3393 53.8723C98.3497 51.8578 98.3393 49.8328 98.3393 47.8184C98.3393 47.2594 98.2458 46.7215 97.9964 46.2152C97.5808 45.3504 96.6768 44.8652 95.6273 44.9285C94.1829 45.0234 93.0815 46.1098 92.9152 47.6074C92.884 47.85 92.8737 48.0926 92.8737 48.3352C92.8737 50.1809 92.8737 52.016 92.8841 53.8617C92.8841 54.0621 92.8425 54.1359 92.6243 54.1254C91.8242 54.1148 91.0241 54.1148 90.224 54.1254C90.0577 54.1254 89.9954 54.0832 89.9954 53.9039V37.7039C89.9954 37.5141 90.0577 37.4719 90.2344 37.4719C91.0345 37.4824 91.8346 37.4824 92.6347 37.4719C92.8321 37.4719 92.8737 37.5352 92.8737 37.725C92.8633 39.6973 92.8737 41.6801 92.8737 43.6523C92.8944 43.7156 92.8944 43.8 92.8944 43.9582ZM75.6559 49.2844H71.3956C71.167 49.2844 71.1358 49.3371 71.1878 49.5586C71.4164 50.4762 71.9775 51.109 72.8191 51.4359C74.4089 52.0582 75.926 51.8367 77.3496 50.9402C77.7029 50.7188 77.6821 50.6977 77.9938 51.0035C78.4406 51.457 78.8771 51.9 79.3343 52.343C79.4693 52.4801 79.4797 52.5539 79.3343 52.691C78.4199 53.5348 77.3392 54.0094 76.1442 54.252C74.7622 54.5367 73.3906 54.4945 72.0502 54.041C70.263 53.4398 69.0576 52.227 68.4965 50.3918C68.0289 48.873 68.0185 47.3332 68.5588 45.8355C69.3278 43.7051 70.8968 42.5238 73.0685 42.1336C74.1388 41.9438 75.209 41.9859 76.2585 42.2707C78.212 42.7875 79.4278 44.0637 79.9577 46.0254C80.2279 47.0484 80.2591 48.0926 80.1759 49.1367C80.1551 49.3371 80.0408 49.2844 79.9369 49.2844H75.6559ZM74.2946 46.8691H77.1625C77.3392 46.8691 77.4119 46.848 77.36 46.6371C77.1729 45.7934 76.695 45.2133 75.9156 44.8863C75.3753 44.6543 74.8038 44.6016 74.2219 44.6121C72.8087 44.6543 71.7073 45.4031 71.2605 46.6371C71.1878 46.827 71.2189 46.8797 71.4267 46.8691H74.2946ZM110.008 49.2844H105.748C105.519 49.2844 105.488 49.3477 105.54 49.5586C105.769 50.4867 106.34 51.1195 107.203 51.4465C108.751 52.0371 110.247 51.8262 111.66 50.9824C111.796 50.898 111.899 50.6977 112.055 50.7293C112.19 50.7609 112.284 50.9297 112.398 51.0457C112.824 51.4676 113.24 51.9 113.676 52.3113C113.863 52.4906 113.832 52.5856 113.656 52.7332C112.824 53.482 111.848 53.9461 110.767 54.1992C109.302 54.5473 107.837 54.5262 106.403 54.041C104.262 53.3133 103.046 51.7629 102.652 49.5375C102.413 48.1875 102.485 46.848 103.026 45.5719C103.857 43.5891 105.384 42.4922 107.452 42.1336C108.564 41.9438 109.676 41.9965 110.756 42.3129C112.752 42.893 113.926 44.2641 114.383 46.2996C114.591 47.2277 114.612 48.1664 114.539 49.1156C114.528 49.316 114.424 49.2949 114.3 49.2949C112.866 49.2844 111.432 49.2844 110.008 49.2844ZM108.658 46.8691H111.557C111.723 46.8691 111.764 46.8375 111.733 46.6582C111.546 45.7934 111.058 45.2027 110.258 44.8758C109.613 44.6121 108.938 44.5594 108.263 44.6438C107.047 44.7914 106.122 45.382 105.655 46.5738C105.54 46.8691 105.54 46.8691 105.842 46.8691H108.658ZM60.9735 47.7973C60.9735 46.9641 60.9631 46.1203 60.9735 45.2871C60.9735 45.0867 60.9111 45.034 60.7241 45.0445C60.163 45.0551 59.6018 45.0445 59.0407 45.0551C58.8745 45.0551 58.8121 45.0234 58.8121 44.8441C58.8225 44.148 58.8225 43.452 58.8121 42.7559C58.8121 42.5766 58.8641 42.5344 59.0303 42.5344C59.6018 42.5449 60.1733 42.5344 60.7345 42.5449C60.9319 42.5449 60.9631 42.4816 60.9631 42.3023C60.9527 41.4586 60.9631 40.6148 60.9527 39.7605C60.9527 39.5918 60.9735 39.518 61.1709 39.4969C62.0022 39.423 62.823 39.3281 63.6543 39.2227C63.831 39.2016 63.8414 39.2754 63.8414 39.4125C63.8414 40.3617 63.8414 41.3215 63.831 42.2707C63.831 42.4816 63.8933 42.5344 64.0907 42.5344C64.9947 42.5238 65.8884 42.5344 66.7924 42.5238C66.9794 42.5238 67.0314 42.5766 67.021 42.7664C67.0106 43.452 67.0106 44.1375 67.021 44.823C67.021 45.0023 66.969 45.0445 66.8028 45.0445C65.8988 45.034 65.0051 45.0445 64.1011 45.034C63.8725 45.034 63.7998 45.0762 63.7998 45.3293C63.8102 46.9008 63.8102 48.4723 63.8102 50.0543C63.8102 51.341 64.5791 51.9738 65.826 51.6996C66.065 51.6469 66.304 51.5731 66.5326 51.4676C66.6469 51.4148 66.6989 51.4148 66.7404 51.552C66.969 52.2797 67.208 53.018 67.447 53.7457C67.4782 53.8406 67.4886 53.8934 67.3743 53.9355C65.9923 54.4418 64.5791 54.6211 63.1763 54.0727C61.9918 53.6086 61.3683 52.6488 61.0981 51.4254C61.0046 50.9824 60.9735 50.5289 60.9631 50.0754C60.9735 49.3266 60.9735 48.5672 60.9735 47.7973ZM82.4411 47.7762V45.1395C82.4411 44.9707 82.3996 44.9074 82.2229 44.918C81.641 44.9285 81.0695 44.918 80.4877 44.9285C80.3318 44.9285 80.2694 44.8863 80.2694 44.7176C80.2798 44.0215 80.2798 43.3254 80.2694 42.6293C80.2694 42.4711 80.311 42.4184 80.4773 42.4184C81.0488 42.4289 81.6203 42.4078 82.1814 42.4289C82.3996 42.4395 82.4308 42.3551 82.4308 42.1547C82.4204 41.3004 82.4308 40.4461 82.4204 39.5918C82.4204 39.4652 82.4308 39.3809 82.597 39.3598C83.4179 39.2859 84.2388 39.2016 85.0597 39.0961C85.2571 39.075 85.3091 39.1172 85.3091 39.3176C85.2987 40.2773 85.309 41.2266 85.2987 42.1863C85.2987 42.3762 85.3506 42.4289 85.5273 42.4184C86.4313 42.4078 87.3457 42.4184 88.2497 42.4078C88.4367 42.4078 88.4783 42.4605 88.4783 42.6504C88.4679 43.3254 88.4679 44.0109 88.4783 44.6859C88.4783 44.8758 88.4263 44.918 88.2393 44.918C87.3353 44.9074 86.4209 44.918 85.5169 44.9074C85.3194 44.9074 85.2675 44.9602 85.2675 45.1605C85.2779 46.7742 85.2675 48.3879 85.2779 50.0121C85.2779 50.8242 85.6312 51.3832 86.2546 51.5625C86.8053 51.7207 87.3353 51.6047 87.8548 51.4043C88.1562 51.2883 88.1562 51.2883 88.2705 51.6047C88.4887 52.2586 88.6965 52.923 88.9043 53.577C88.9355 53.6719 88.9771 53.7563 88.8316 53.809C87.5015 54.2941 86.1507 54.4629 84.7895 53.9988C83.4595 53.5453 82.7944 52.5012 82.5347 51.1512C82.3684 50.2758 82.4515 49.4004 82.4308 48.525C82.4412 48.2824 82.4411 48.0293 82.4411 47.7762ZM118.986 43.6945C119.194 43.4203 119.371 43.1672 119.589 42.9563C120.15 42.4289 120.825 42.1758 121.573 42.102C122.737 41.9859 123.839 42.1863 124.826 42.8613C125.241 43.1461 125.231 43.1461 125.013 43.5996C124.701 44.2219 124.369 44.8441 124.067 45.4664C123.974 45.6563 123.911 45.7195 123.714 45.5613C122.675 44.7492 120.96 44.7598 119.952 45.5719C119.277 46.1203 119.017 46.8797 119.007 47.7234C118.986 49.759 118.986 51.7945 118.996 53.8301C118.996 54.0832 118.924 54.1254 118.695 54.1254C117.916 54.1148 117.126 54.1148 116.347 54.1254C116.17 54.1254 116.129 54.0727 116.129 53.9039V42.6293C116.129 42.4395 116.181 42.3973 116.368 42.3973C117.105 42.4078 117.854 42.4078 118.591 42.3973C118.747 42.3973 118.799 42.4395 118.82 42.5977C118.861 42.9457 118.924 43.3043 118.986 43.6945Z" fill="white"/>
<path d="M71.3864 69.8068V69.1818H75.75V69.8068H73.9205V75H73.2159V69.8068H71.3864ZM76.8374 75V69.1818H78.8033C79.2578 69.1818 79.6309 69.2595 79.9226 69.4148C80.2143 69.5682 80.4302 69.7794 80.5703 70.0483C80.7105 70.3172 80.7805 70.6231 80.7805 70.9659C80.7805 71.3087 80.7105 71.6127 80.5703 71.8778C80.4302 72.143 80.2152 72.3513 79.9254 72.5028C79.6357 72.6525 79.2654 72.7273 78.8146 72.7273H77.2237V72.0909H78.7919C79.1025 72.0909 79.3525 72.0455 79.5419 71.9545C79.7332 71.8636 79.8714 71.7348 79.9567 71.5682C80.0438 71.3996 80.0874 71.1989 80.0874 70.9659C80.0874 70.733 80.0438 70.5294 79.9567 70.3551C79.8696 70.1809 79.7304 70.0464 79.5391 69.9517C79.3478 69.8551 79.0949 69.8068 78.7805 69.8068H77.5419V75H76.8374ZM79.576 72.3864L81.0078 75H80.1896L78.7805 72.3864H79.576ZM86.6364 71H85.9318C85.8902 70.7973 85.8172 70.6193 85.7131 70.4659C85.6108 70.3125 85.4858 70.1837 85.3381 70.0795C85.1922 69.9735 85.0303 69.8939 84.8523 69.8409C84.6742 69.7879 84.4886 69.7614 84.2955 69.7614C83.9432 69.7614 83.6241 69.8504 83.3381 70.0284C83.054 70.2064 82.8277 70.4688 82.6591 70.8153C82.4924 71.1619 82.4091 71.5871 82.4091 72.0909C82.4091 72.5947 82.4924 73.0199 82.6591 73.3665C82.8277 73.7131 83.054 73.9754 83.3381 74.1534C83.6241 74.3314 83.9432 74.4205 84.2955 74.4205C84.4886 74.4205 84.6742 74.3939 84.8523 74.3409C85.0303 74.2879 85.1922 74.2093 85.3381 74.1051C85.4858 73.9991 85.6108 73.8693 85.7131 73.7159C85.8172 73.5606 85.8902 73.3826 85.9318 73.1818H86.6364C86.5833 73.4792 86.4867 73.7453 86.3466 73.9801C86.2064 74.215 86.0322 74.4148 85.8239 74.5795C85.6155 74.7424 85.3816 74.8665 85.1222 74.9517C84.8646 75.0369 84.589 75.0795 84.2955 75.0795C83.7992 75.0795 83.358 74.9583 82.9716 74.7159C82.5852 74.4735 82.2813 74.1288 82.0597 73.6818C81.8381 73.2348 81.7273 72.7045 81.7273 72.0909C81.7273 71.4773 81.8381 70.947 82.0597 70.5C82.2813 70.053 82.5852 69.7083 82.9716 69.4659C83.358 69.2235 83.7992 69.1023 84.2955 69.1023C84.589 69.1023 84.8646 69.1449 85.1222 69.2301C85.3816 69.3153 85.6155 69.4403 85.8239 69.6051C86.0322 69.768 86.2064 69.9669 86.3466 70.2017C86.4867 70.4347 86.5833 70.7008 86.6364 71ZM87.6726 75V74.4886L89.593 72.3864C89.8184 72.1402 90.004 71.9261 90.1499 71.7443C90.2957 71.5606 90.4036 71.3883 90.4737 71.2273C90.5457 71.0644 90.5817 70.8939 90.5817 70.7159C90.5817 70.5114 90.5324 70.3343 90.4339 70.1847C90.3374 70.035 90.2048 69.9195 90.0362 69.8381C89.8677 69.7566 89.6783 69.7159 89.468 69.7159C89.2446 69.7159 89.0495 69.7623 88.8828 69.8551C88.718 69.946 88.5902 70.0739 88.4993 70.2386C88.4103 70.4034 88.3658 70.5966 88.3658 70.8182H87.6953C87.6953 70.4773 87.7739 70.178 87.9311 69.9205C88.0883 69.6629 88.3023 69.4621 88.5732 69.3182C88.8459 69.1742 89.1518 69.1023 89.4908 69.1023C89.8317 69.1023 90.1338 69.1742 90.397 69.3182C90.6603 69.4621 90.8667 69.6562 91.0163 69.9006C91.166 70.1449 91.2408 70.4167 91.2408 70.7159C91.2408 70.9299 91.2019 71.1392 91.1243 71.3438C91.0485 71.5464 90.916 71.7727 90.7266 72.0227C90.5391 72.2708 90.2786 72.5739 89.9453 72.9318L88.6385 74.3295V74.375H91.343V75H87.6726ZM94.4141 75.0795C93.986 75.0795 93.6214 74.9631 93.3203 74.7301C93.0192 74.4953 92.7891 74.1553 92.63 73.7102C92.4709 73.2633 92.3913 72.7235 92.3913 72.0909C92.3913 71.4621 92.4709 70.9252 92.63 70.4801C92.791 70.0331 93.022 69.6922 93.3232 69.4574C93.6262 69.2206 93.9898 69.1023 94.4141 69.1023C94.8383 69.1023 95.201 69.2206 95.5021 69.4574C95.8052 69.6922 96.0362 70.0331 96.1953 70.4801C96.3563 70.9252 96.4368 71.4621 96.4368 72.0909C96.4368 72.7235 96.3572 73.2633 96.1982 73.7102C96.0391 74.1553 95.8089 74.4953 95.5078 74.7301C95.2067 74.9631 94.8421 75.0795 94.4141 75.0795ZM94.4141 74.4545C94.8383 74.4545 95.1679 74.25 95.4027 73.8409C95.6375 73.4318 95.755 72.8485 95.755 72.0909C95.755 71.5871 95.701 71.1581 95.593 70.804C95.487 70.4498 95.3336 70.1799 95.1328 69.9943C94.9339 69.8087 94.6944 69.7159 94.4141 69.7159C93.9936 69.7159 93.665 69.9233 93.4283 70.3381C93.1915 70.7509 93.0732 71.3352 93.0732 72.0909C93.0732 72.5947 93.1262 73.0227 93.2322 73.375C93.3383 73.7273 93.4908 73.9953 93.6896 74.179C93.8904 74.3627 94.1319 74.4545 94.4141 74.4545Z" fill="#9F9F9F"/>
<circle cx="61" cy="72" r="7" fill="#EC0928"/>
<path d="M64.8731 70.4511C64.4996 70.1894 64.0978 69.9065 63.7031 69.6236C63.696 69.6165 63.689 69.6094 63.6749 69.6023C63.6326 69.567 63.5833 69.5316 63.5198 69.5175H63.5128C62.4626 69.2628 61.3912 69.0011 60.3551 68.7465C59.4176 68.5201 58.4802 68.2867 57.5427 68.0604C57.5216 68.0533 57.4934 68.0462 57.4722 68.0392C57.3877 68.018 57.289 67.9897 57.1833 68.0038C57.1551 68.0109 57.1269 68.018 57.1057 68.0321L57.0775 68.0533C57.0352 68.0958 57.0141 68.1453 57.007 68.1736L57 68.1877V68.2867L57.007 68.3009C57.5991 69.9772 58.2123 71.6748 58.7974 73.3158C59.2485 74.5819 59.7207 75.8904 60.1789 77.1777C60.207 77.2626 60.2846 77.3192 60.3903 77.3333H60.4115C60.5031 77.3333 60.5877 77.2909 60.63 77.2131L62.3498 74.688C62.7727 74.0726 63.1885 73.4572 63.6115 72.8419C63.7806 72.5872 63.9568 72.3397 64.126 72.085C64.4079 71.6677 64.6969 71.2433 64.9859 70.826L65 70.8048V70.7765C64.993 70.6916 65 70.5289 64.8731 70.4511ZM62.8573 71.3706C62.4555 71.5828 62.0396 71.8021 61.6238 72.0214C61.8634 71.7597 62.1101 71.498 62.3498 71.2363C62.6529 70.9109 62.97 70.5714 63.2731 70.2389L63.2802 70.2319C63.3084 70.1965 63.3366 70.1611 63.3718 70.1258C63.393 70.1045 63.4211 70.0763 63.4423 70.048C63.6044 70.1611 63.7665 70.2743 63.9216 70.3875C64.0344 70.4653 64.1471 70.5502 64.267 70.628C63.7947 70.8755 63.3154 71.1231 62.8573 71.3706ZM61.8141 71.2645C61.504 71.6041 61.1797 71.9506 60.8626 72.2972C60.2423 71.5404 59.6079 70.7694 58.9947 70.0338C58.7198 69.6943 58.4379 69.3548 58.1559 69.0223C58.0925 68.9516 58.0291 68.8738 57.9727 68.796C57.9304 68.7465 57.8952 68.697 57.8529 68.6475C58.1066 68.7111 58.3604 68.7748 58.607 68.8314C58.8256 68.8809 59.0581 68.9375 59.2767 68.9941C60.5383 69.3053 61.8 69.6094 63.0617 69.9206C62.6458 70.3663 62.2229 70.8189 61.8141 71.2645ZM60.7216 75.5297C60.7427 75.3033 60.7709 75.0628 60.7921 74.8294C60.8132 74.6455 60.8344 74.4545 60.8485 74.2706C60.8767 73.9806 60.9119 73.6765 60.9401 73.3794L60.9471 73.3299C60.9683 73.1389 60.9894 72.948 61.0035 72.7499C61.0247 72.7358 61.0529 72.7216 61.0811 72.7145C61.1163 72.7004 61.1445 72.6863 61.1797 72.665C61.6802 72.4033 62.1806 72.1345 62.6881 71.8728C63.1885 71.6111 63.7031 71.3423 64.2176 71.0665C63.7524 71.7455 63.2872 72.4316 62.8361 73.0965C62.4485 73.6694 62.0467 74.2565 61.652 74.8365C61.4969 75.0699 61.3348 75.3033 61.1797 75.5297C61.0035 75.7843 60.8273 76.046 60.6511 76.3006C60.6722 76.0531 60.6934 75.7843 60.7216 75.5297ZM57.6907 69.1567C57.6626 69.0789 57.6344 68.9941 57.6062 68.9233C58.1912 69.6377 58.7833 70.3521 59.3612 71.0523C59.6573 71.4131 59.9533 71.7738 60.2564 72.1345C60.3128 72.2053 60.3762 72.276 60.4326 72.3467C60.5031 72.4387 60.5806 72.5306 60.6582 72.6226C60.63 72.8489 60.6088 73.0753 60.5877 73.2945C60.5736 73.4502 60.5595 73.5987 60.5383 73.7543C60.5313 73.8533 60.5172 73.9524 60.5101 74.0443C60.496 74.1787 60.4608 74.4828 60.4608 74.4828V74.497C60.4185 74.9355 60.3762 75.3882 60.3269 75.8197C60.3057 75.9965 60.2916 76.1804 60.2705 76.3643C60.2564 76.3289 60.2493 76.3006 60.2352 76.2653C60.2 76.1804 60.1718 76.0885 60.1366 75.9965L59.904 75.3458C59.1709 73.2804 58.4308 71.2221 57.6907 69.1567Z" fill="white"/>
</svg>
