<svg width="150" height="100" viewBox="0 0 150 100" fill="none" xmlns="http://www.w3.org/2000/svg">
<path d="M23.8426 62.7859H24.6268L23.8981 65.8293C23.79 66.2809 23.8103 66.6209 23.9598 66.8477C24.1087 67.0747 24.3859 67.1882 24.7909 67.1882C25.1935 67.1882 25.5236 67.0747 25.7815 66.8477C26.0396 66.6209 26.2228 66.2809 26.3309 65.8293L27.0593 62.7859H27.8537L27.1072 65.9047C26.945 66.5824 26.6559 67.0897 26.2421 67.426C25.8279 67.7628 25.2849 67.931 24.6132 67.931C23.9408 67.931 23.4797 67.7631 23.2286 67.4277C22.9772 67.0925 22.9333 66.5846 23.0961 65.9047L23.8426 62.7859Z" fill="#76879D"/>
<path d="M27.7485 67.7976L28.9958 62.5874L31.3658 65.6512C31.4293 65.7376 31.4932 65.8302 31.5564 65.9284C31.6194 66.0266 31.684 66.137 31.7502 66.2605L32.5822 62.7858H33.3163L32.0699 67.9921L29.65 64.8736C29.5852 64.7895 29.5249 64.7007 29.4686 64.6069C29.4117 64.5132 29.3604 64.415 29.3134 64.3125L28.4792 67.7976H27.7485Z" fill="#76879D"/>
<path d="M33.2515 67.7978L34.4511 62.7861H35.2449L34.0455 67.7978H33.2515Z" fill="#76879D"/>
<path d="M35.1865 67.7978L36.3863 62.7861H39.1124L38.9467 63.4774H37.0147L36.7154 64.7269H38.6476L38.4766 65.4423H36.5442L35.9805 67.7978H35.1865Z" fill="#76879D"/>
<path d="M38.7871 67.7978L39.9869 62.7861H40.7806L39.5811 67.7978H38.7871Z" fill="#76879D"/>
<path d="M40.7227 67.7978L41.9224 62.7861H44.6485L44.4829 63.4774H42.5508L42.2499 64.7338H44.1819L44.011 65.4494H42.079L41.6911 67.0687H43.6232L43.4488 67.7978H40.7227Z" fill="#76879D"/>
<path d="M45.3305 67.0614H45.998C46.3649 67.0614 46.6463 67.0362 46.8419 66.9861C47.0375 66.936 47.217 66.8513 47.3815 66.7327C47.6048 66.571 47.7914 66.3696 47.9414 66.1287C48.0912 65.888 48.2047 65.6075 48.2811 65.2878C48.3573 64.9682 48.3782 64.6886 48.3437 64.4482C48.3089 64.207 48.2189 64.0058 48.0731 63.8435C47.9635 63.7252 47.8188 63.6403 47.6382 63.5899C47.4573 63.5401 47.1629 63.5149 46.7536 63.5149H46.4665H46.1795L45.3305 67.0614ZM44.3604 67.7977L45.5601 62.7856H46.631C47.3274 62.7856 47.8086 62.8213 48.0753 62.8933C48.3414 62.9654 48.5613 63.086 48.7344 63.2548C48.9639 63.4761 49.11 63.7603 49.1728 64.1068C49.2354 64.4539 49.2133 64.85 49.1068 65.2949C49.0004 65.74 48.8331 66.1343 48.605 66.4776C48.3773 66.8213 48.0951 67.1047 47.7594 67.3283C47.5055 67.4973 47.2331 67.6177 46.9438 67.6898C46.6537 67.7615 46.2211 67.7977 45.6448 67.7977H45.431H44.3604Z" fill="#76879D"/>
<path d="M52.9731 64.8813H53.1769C53.6172 64.8813 53.9226 64.8317 54.093 64.7338C54.2637 64.6358 54.3784 64.4622 54.4378 64.2135C54.5018 63.9465 54.4687 63.7579 54.3379 63.6487C54.2071 63.5391 53.932 63.4839 53.5116 63.4839H53.3077L52.9731 64.8813ZM52.7634 65.5482L52.2249 67.7978H51.481L52.681 62.7861H53.8821C54.2379 62.7861 54.4953 62.8059 54.6538 62.8458C54.8118 62.8855 54.9423 62.9514 55.0454 63.0428C55.1707 63.1592 55.2531 63.3161 55.2928 63.5133C55.3321 63.711 55.3236 63.9283 55.267 64.1653C55.2098 64.4028 55.1141 64.6219 54.9794 64.8229C54.8446 65.0236 54.6867 65.1813 54.506 65.2951C54.3594 65.3866 54.1977 65.4516 54.0206 65.4902C53.8431 65.5292 53.5767 65.5482 53.2208 65.5482H53.0643H52.7634Z" fill="#76879D"/>
<path d="M56.2472 65.8295H57.6086L57.3813 64.6858C57.3705 64.6131 57.3604 64.5293 57.3515 64.4345C57.3433 64.3396 57.3376 64.234 57.334 64.1177C57.2813 64.2272 57.2284 64.3294 57.1755 64.4243C57.1228 64.5188 57.0716 64.6061 57.0212 64.6858L56.2472 65.8295ZM57.9718 67.7978L57.7264 66.5072H55.7909L54.9147 67.7978H54.0811L57.6935 62.5876L58.8092 67.7978H57.9718Z" fill="#76879D"/>
<path d="M59.9475 67.7978L60.4961 65.504L59.502 62.7861H60.3362L60.9533 64.4874C60.9675 64.5311 60.9845 64.588 61.004 64.6587C61.0238 64.7295 61.0431 64.8057 61.0612 64.888C61.1109 64.8082 61.1622 64.7323 61.2135 64.6619C61.2647 64.5911 61.3165 64.5263 61.3689 64.4668L62.8219 62.7861H63.6163L61.2836 65.504L60.7348 67.7978H59.9475Z" fill="#76879D"/>
<path d="M67.5242 65.3225C67.5245 65.2838 67.5358 65.1767 67.5579 65.001C67.5749 64.8549 67.5882 64.7337 67.5978 64.6377C67.5505 64.7521 67.4948 64.8665 67.4307 64.9803C67.3665 65.0944 67.2929 65.2107 67.2089 65.3296L65.2915 68L64.6659 65.2749C64.6393 65.1628 64.6189 65.0544 64.6053 64.9497C64.5917 64.8447 64.5824 64.7408 64.5778 64.6377C64.5507 64.7431 64.5161 64.8529 64.474 64.9684C64.4317 65.0836 64.3813 65.2042 64.3222 65.3296L63.2074 67.7978H62.4771L64.8818 62.5735L65.5663 65.737C65.5763 65.7871 65.5907 65.8706 65.6083 65.987C65.6258 66.1033 65.6465 66.2471 65.6706 66.4181C65.7515 66.2742 65.8681 66.092 66.0216 65.8706C66.0623 65.8111 66.0935 65.7656 66.1144 65.7335L68.2792 62.5735L68.2098 67.7978H67.4721L67.5242 65.3225Z" fill="#76879D"/>
<path d="M68.8438 67.7978L70.0437 62.7861H72.7698L72.6043 63.4774H70.6719L70.3712 64.7338H72.3034L72.1324 65.4494H70.2L69.8125 67.0687H71.7445L71.5696 67.7978H68.8438Z" fill="#76879D"/>
<path d="M72.481 67.7976L73.7282 62.5874L76.0982 65.6512C76.1616 65.7376 76.2256 65.8302 76.2887 65.9284C76.3519 66.0266 76.4164 66.137 76.4826 66.2605L77.3147 62.7858H78.049L76.8022 67.9921L74.3824 64.8736C74.3176 64.7895 74.2573 64.7007 74.201 64.6069C74.144 64.5132 74.0928 64.415 74.0458 64.3125L73.2116 67.7976H72.481Z" fill="#76879D"/>
<path d="M80.583 63.4774L79.5489 67.7978H78.7549L79.7887 63.4774H78.4907L78.6563 62.7861H82.0398L81.8745 63.4774H80.583Z" fill="#76879D"/>
<path d="M81.4064 66.7943L82.1125 66.4934C82.1196 66.7168 82.1887 66.8875 82.3206 67.005C82.4525 67.1228 82.643 67.1813 82.8926 67.1813C83.1282 67.1813 83.332 67.1139 83.503 66.9792C83.6742 66.8447 83.7872 66.6644 83.8413 66.4385C83.9118 66.1439 83.7359 65.8814 83.3156 65.6512C83.2567 65.617 83.2114 65.5918 83.1802 65.5756C82.7061 65.3064 82.4055 65.0627 82.2786 64.8448C82.1521 64.6267 82.1261 64.3604 82.2013 64.0456C82.299 63.6371 82.5136 63.3061 82.8445 63.0528C83.1754 62.7994 83.5599 62.6726 83.9984 62.6726C84.3588 62.6726 84.6433 62.7439 84.8513 62.8866C85.0597 63.0295 85.1786 63.2342 85.208 63.5012L84.5091 63.8299C84.4485 63.6725 84.3687 63.5572 84.2696 63.484C84.1702 63.4109 84.0446 63.3744 83.8936 63.3744C83.6802 63.3744 83.4967 63.4318 83.3436 63.5454C83.1913 63.6597 83.0914 63.8126 83.0453 64.0045C82.9734 64.3058 83.182 64.5863 83.6714 64.8464C83.7091 64.8668 83.7385 64.8832 83.7598 64.8945C84.188 65.1224 84.4667 65.3458 84.5943 65.5638C84.7222 65.782 84.7474 66.0541 84.669 66.3802C84.5555 66.8552 84.3197 67.2323 83.9613 67.5117C83.6029 67.7911 83.1754 67.9309 82.6798 67.9309C82.2634 67.9309 81.946 67.833 81.7275 67.6366C81.5083 67.4404 81.4014 67.1598 81.4064 66.7943Z" fill="#76879D"/>
<path d="M87.2734 67.7978L88.4732 62.7861H89.2673L88.0675 67.7978H87.2734Z" fill="#76879D"/>
<path d="M89.2095 67.7976L90.4567 62.5874L92.8267 65.6512C92.8902 65.7376 92.9541 65.8302 93.0173 65.9284C93.0803 66.0266 93.1449 66.137 93.2111 66.2605L94.0431 62.7858H94.7772L93.5308 67.9921L91.111 64.8736C91.0461 64.7895 90.9855 64.7007 90.9292 64.6069C90.8726 64.5132 90.821 64.415 90.7741 64.3125L89.9401 67.7976H89.2095Z" fill="#76879D"/>
<path d="M97.3111 63.4774L96.2767 67.7978H95.4829L96.5167 63.4774H95.2188L95.3844 62.7861H98.7678L98.6025 63.4774H97.3111Z" fill="#76879D"/>
<path d="M98.1753 67.7978L99.375 62.7861H102.101L101.936 63.4774H100.004L99.7028 64.7338H101.635L101.464 65.4494H99.5316L99.144 67.0687H101.076L100.901 67.7978H98.1753Z" fill="#76879D"/>
<path d="M103.295 64.922H103.439C103.859 64.922 104.15 64.8722 104.312 64.7716C104.474 64.6712 104.586 64.4934 104.647 64.2374C104.713 63.9615 104.686 63.7667 104.564 63.6541C104.444 63.5405 104.183 63.4842 103.783 63.4842H103.639L103.295 64.922ZM103.093 65.5552L102.556 67.7978H101.812L103.012 62.7861H104.12C104.445 62.7861 104.692 62.8076 104.861 62.8512C105.029 62.8945 105.165 62.9661 105.267 63.0669C105.39 63.1875 105.469 63.3443 105.506 63.536C105.542 63.7273 105.532 63.9374 105.478 64.1653C105.382 64.567 105.212 64.8815 104.969 65.1088C104.726 65.3356 104.414 65.4723 104.033 65.5176L105.169 67.7978H104.272L103.183 65.5552H103.093Z" fill="#76879D"/>
<path d="M105.641 67.7978L106.84 62.7861H109.566L109.401 63.4774H107.469L107.169 64.7269H109.102L108.931 65.4423H106.998L106.434 67.7978H105.641Z" fill="#76879D"/>
<path d="M110.486 65.8295H111.848L111.621 64.6858C111.61 64.6131 111.599 64.5293 111.591 64.4345C111.583 64.3396 111.577 64.234 111.574 64.1177C111.521 64.2272 111.468 64.3294 111.415 64.4243C111.362 64.5188 111.311 64.6061 111.26 64.6858L110.486 65.8295ZM112.211 67.7978L111.966 66.5072H110.031L109.154 67.7978H108.32L111.932 62.5876L113.049 67.7978H112.211Z" fill="#76879D"/>
<path d="M118.218 64.0045C118.04 63.8083 117.839 63.6611 117.612 63.5629C117.385 63.4653 117.133 63.4157 116.857 63.4157C116.324 63.4157 115.847 63.5915 115.428 63.9428C115.009 64.2944 114.733 64.7496 114.599 65.309C114.47 65.85 114.526 66.2958 114.768 66.6471C115.009 66.9987 115.378 67.1748 115.874 67.1748C116.164 67.1748 116.451 67.1222 116.738 67.0171C117.024 66.9121 117.314 66.7535 117.604 66.541L117.384 67.4621C117.133 67.6195 116.872 67.7373 116.602 67.8146C116.332 67.8921 116.05 67.9309 115.757 67.9309C115.383 67.9309 115.053 67.8684 114.766 67.7426C114.479 67.6173 114.244 67.4327 114.062 67.1881C113.882 66.9486 113.766 66.6664 113.716 66.3408C113.666 66.0158 113.685 65.6693 113.773 65.3016C113.861 64.9345 114.008 64.5894 114.213 64.2663C114.418 63.9434 114.671 63.6597 114.972 63.4157C115.274 63.1692 115.597 62.9828 115.94 62.8557C116.284 62.7295 116.639 62.6658 117.004 62.6658C117.291 62.6658 117.554 62.7089 117.794 62.7946C118.034 62.8798 118.255 63.0091 118.459 63.1833L118.218 64.0045Z" fill="#76879D"/>
<path d="M118.294 67.7978L119.494 62.7861H122.22L122.055 63.4774H120.123L119.822 64.7338H121.754L121.583 65.4494H119.651L119.263 67.0687H121.195L121.02 67.7978H118.294Z" fill="#76879D"/>
<path d="M103.811 58.4184H98.3521L105.944 31H111.403L103.811 58.4184Z" fill="white"/>
<path d="M100.977 31.8675C100.598 31.3458 100.015 31.0825 99.2217 31.0825H69.2043L67.7175 36.4527H73.1794V36.4496H95.0249L93.4357 42.1883H71.5896L71.5916 42.1764H66.1319L61.6006 58.5352H67.063L70.1039 47.5553H94.6606C95.4274 47.5553 96.1493 47.2938 96.8282 46.7706C97.5056 46.2469 97.9515 45.6012 98.1652 44.83L101.206 33.848C101.428 33.0511 101.351 32.3898 100.977 31.8675Z" fill="white"/>
<path d="M58.42 56.7071C58.1185 57.7927 57.1299 58.5437 56.0029 58.5437H27.8383C27.0709 58.5437 26.5005 58.2821 26.1254 57.7596C25.7506 57.2364 25.6702 56.5893 25.8845 55.8184L32.7567 31.0803H38.2206L32.0824 53.1752H53.9384L60.0765 31.0803H65.5393L58.42 56.7071Z" fill="white"/>
<path d="M120.831 31.0518L127.742 44.7965L113.213 58.5375L120.831 31.0518Z" fill="#27803B"/>
<path d="M115.986 31.0518L122.893 44.7965L108.358 58.5375L115.986 31.0518Z" fill="#E9661C"/>
</svg>
